<svg width="43" height="40" viewBox="0 0 43 40" fill="none" xmlns="http://www.w3.org/2000/svg">
<path d="M28.429 6.94847C30.763 4.18266 30.6733 0.200815 30.4627 0.0256056C30.252 -0.15169 26.3911 0.557491 23.9987 3.22944C21.6062 5.90556 21.7522 9.9771 21.965 10.1523C22.1736 10.3317 26.0949 9.71428 28.429 6.94847Z" fill="#EC1C24"/>
<path d="M41.9389 18.2599C41.649 15.8925 40.946 14.034 40.0304 12.5781C39.292 11.4038 38.4159 10.4881 37.5107 9.77894C35.4311 8.00598 33.0762 7.55336 31.977 7.41778C31.8935 7.40526 31.8185 7.39692 31.7496 7.39066C31.5765 7.37398 31.4013 7.36563 31.2198 7.36563C28.5521 7.36355 25.0625 9.21785 23.1122 9.25122H23.0726C21.1223 9.21785 17.6327 7.36355 14.965 7.36563C14.7856 7.36563 14.6083 7.37398 14.4352 7.39066C14.3663 7.39901 14.2912 7.40735 14.2099 7.41778C13.1107 7.55336 10.7558 8.00598 8.67619 9.77894C7.76885 10.4881 6.8928 11.4038 6.1565 12.5781C5.24291 14.034 4.53999 15.8925 4.24797 18.2599C4.14368 19.113 4.09362 20.035 4.10613 21.0257C4.11865 22.0207 4.19791 22.9927 4.33349 23.9417C4.62551 25.9671 5.17408 27.8756 5.88326 29.6235C6.66962 31.5633 7.65413 33.3071 8.70121 34.788C11.0207 38.067 13.6446 39.9651 15.1235 39.9984C15.2194 40.0005 15.3133 40.0005 15.4092 39.9984C18.2418 39.9463 20.7218 38.1358 22.7972 38.0649C22.8369 38.0628 22.8786 38.0649 22.9182 38.0649C22.9433 38.0649 22.9662 38.0628 22.9891 38.0649C23.0058 38.067 23.0204 38.069 23.0371 38.0711C23.0496 38.0711 23.0601 38.0711 23.0705 38.069L23.0893 38.067L23.1101 38.069C23.1226 38.0711 23.1331 38.0711 23.1456 38.0711C23.1623 38.069 23.1769 38.069 23.1936 38.0649C23.2186 38.0628 23.2415 38.0649 23.2645 38.0649C23.3062 38.0649 23.3458 38.0628 23.3855 38.0649C25.4609 38.1358 27.9409 39.9463 30.7735 39.9984C30.8694 40.0005 30.9633 40.0005 31.0592 39.9984C32.5381 39.9651 35.162 38.069 37.4794 34.788C38.5265 33.3071 39.511 31.5633 40.2974 29.6235C41.0065 27.8756 41.5572 25.9671 41.8492 23.9417C41.9848 22.9927 42.0641 22.0207 42.0766 21.0257C42.0933 20.0329 42.0432 19.113 41.9389 18.2599Z" fill="#EC1C24"/>
<path d="M18.2105 12.8702C17.9226 13.3812 17.3803 13.0683 17.3803 13.0683C17.3032 13.0308 17.1926 13.1267 17.2594 13.2122C17.3261 13.2957 17.6473 13.6419 17.9664 13.5564C18.2856 13.473 18.4086 13.1371 18.394 12.9306C18.3774 12.7242 18.2105 12.8702 18.2105 12.8702ZM16.4313 9.38474C16.4313 9.38474 15.9807 9.49737 16.0683 10.0689C16.156 10.6404 16.3437 10.7593 16.5606 10.6988C16.7775 10.6383 16.8484 10.3797 16.7296 10.0188C16.7296 10.0188 16.571 9.67467 16.6837 9.62252C16.7984 9.56829 16.8714 9.95 16.9548 9.88325C17.007 9.84153 16.959 9.74976 16.959 9.74976C16.959 9.74976 16.8234 9.28045 16.4313 9.38474ZM17.2385 18.3538C17.276 18.4414 17.7078 18.8523 18.1312 18.7897C18.5567 18.7272 18.7653 18.3559 18.807 18.116C18.8488 17.8741 18.6381 18.0555 18.6381 18.0555C18.0311 18.6354 17.4951 18.3976 17.3824 18.2996C17.3032 18.2328 17.203 18.2683 17.2385 18.3538ZM24.7683 31.1045C24.3533 31.1066 22.5365 31.3861 19.2451 29.8571H19.2471C19.2471 29.8551 19.2451 29.8551 19.243 29.8551L18.8613 30.1408L18.9238 30.0949L15.9641 32.3017C15.9641 32.3017 16.4083 32.746 17.2114 33.2654C17.3011 33.3238 17.397 33.3843 17.4971 33.4427C17.518 33.4156 17.8121 33.0276 18.0833 32.8211C18.3628 32.6063 18.7173 32.3727 18.88 32.1829C19.0427 31.991 19.633 31.1754 19.8082 30.5705C19.8082 30.5705 22.4739 31.6989 24.7871 31.3151C24.785 31.3131 25.1855 31.1024 24.7683 31.1045ZM17.8684 16.9125C18.1604 16.8603 18.4253 16.4536 18.3753 15.9822C18.3252 15.5129 18.0207 15.0186 17.6369 15.0478C17.2239 15.0791 17.0529 15.5525 17.1071 16.0656C17.1613 16.5808 17.5764 16.9646 17.8684 16.9125ZM29.7305 15.5025L30.2687 15.0999C30.2687 15.0999 29.0526 13.9193 27.1274 13.2081C25.2064 12.4947 24.493 12.4759 23.2457 12.453C23.2457 12.453 22.4572 11.4601 22.2195 10.2921C22.1464 9.93748 22.3175 9.03432 22.1527 8.65052C21.8836 8.01852 21.8503 7.39903 21.8503 7.39903C21.8503 7.39903 21.8732 7.39486 21.9191 7.3886C21.9525 7.35731 22.1152 7.22173 22.4114 7.13413C22.743 7.03401 23.7338 6.79622 23.9549 6.37697C24.176 5.95981 24.2865 5.46338 24.0529 5.34657C23.8214 5.23185 23.5669 5.20474 23.5252 5.22351C23.4814 5.2402 22.9495 5.65319 22.622 5.63442C22.622 5.63442 22.1882 5.4008 21.9817 5.01701C21.7752 4.63113 21.5687 4.07839 21.0055 4.07839C21.0055 4.07839 20.3798 4.02833 19.8604 4.21814C19.341 4.40586 18.0833 5.19848 17.7308 5.64068C17.7308 5.64068 17.6995 5.82006 17.7203 5.87846C17.7203 5.87846 16.9256 5.95563 16.4 6.24765C15.8744 6.53967 15.2778 6.70445 14.6834 7.83288C14.0868 8.95923 14.1536 9.44523 14.0555 9.70387C13.9575 9.9646 13.7406 10.3526 13.7406 10.3526L13.6342 10.484C13.5925 10.6154 13.5257 10.8031 13.4673 10.9157C13.3714 11.1014 12.3326 12.4613 12.3326 12.4613C12.3326 12.4613 11.6798 13.5126 11.492 13.9694C11.3043 14.4304 11.2146 15.0373 11.248 15.4795C11.2835 15.9217 11.3356 16.2596 11.5087 16.6309C11.6818 17.0022 12.1887 17.7781 12.4786 18.0576C12.0615 18.4018 11.88 18.5353 11.6944 18.7272C11.5087 18.9191 11.1833 19.3049 11.006 19.6303C10.8392 19.939 10.4512 20.6148 10.1675 20.9924C9.88595 21.3678 7.84184 23.5016 7.49976 23.973C7.19106 23.9981 6.79892 23.8187 6.79892 23.8187C6.79892 23.8062 6.79892 23.7916 6.79892 23.779C6.49856 23.6748 5.37221 23.2659 3.88085 22.5922C2.10998 21.7912 1.21307 21.6306 0.15347 22.1271C0.15347 22.1271 -0.324185 22.782 0.405855 23.0886C1.18804 23.414 1.38411 23.2805 2.14961 23.7832C2.14961 23.7832 1.02743 24.6113 0.578979 25.1494C0.130526 25.6876 0.372481 26.3217 1.10461 26.2049C1.83673 26.0901 2.28519 25.9212 2.70027 26.1277C2.70027 26.1277 2.70652 26.4093 2.54383 26.5845C2.37905 26.7618 1.78459 27.3104 1.82213 27.6337C1.86176 27.957 1.84925 28.3741 2.66689 28.2073C2.66689 28.2073 3.17166 28.0341 3.87876 27.5815C3.87876 27.5815 4.8299 27.9987 5.32424 28.2406C5.8165 28.4847 6.50273 28.5368 6.64874 28.3178C6.64874 28.3178 7.31412 28.6807 7.86061 29.2314L7.91275 29.2981C8.07753 29.4421 8.31323 29.6465 8.38415 29.6965C8.4947 29.7758 8.89935 30.0282 9.14965 30.024C9.40204 30.0198 9.71908 29.8905 9.80877 29.7195C9.89846 29.5526 9.90681 29.4462 9.85466 29.1688C9.80252 28.8893 9.48756 28.4555 9.48756 28.4555L10.9435 27.7067L12.3451 26.4718C12.3451 26.4718 12.5537 27.448 12.8833 28.0592L14.8002 26.6304L15.0046 26.4781L14.456 25.4122L14.8148 25.3455C14.8148 25.3455 14.8753 25.1786 14.7564 25.187C14.6396 25.1953 13.6592 25.1661 12.3055 26.086C12.3055 26.086 11.8007 26.4802 11.3898 26.8974C10.9768 27.3145 10.2155 27.8172 9.3186 28.1238C9.3186 28.1238 9.37283 27.6754 9.47713 27.4897C9.47713 27.4897 8.7158 27.7984 9.33946 28.7746C9.33946 28.7746 9.67319 29.2815 9.47087 29.7132C9.47087 29.7132 9.18511 29.853 8.81592 29.6736C8.44673 29.4942 6.9637 27.9465 6.27955 27.9111C6.27955 27.9111 6.60703 28.3282 6.00213 28.1676C5.39724 28.007 3.87459 27.1164 3.56171 27.2895C3.56171 27.2895 3.80993 27.448 3.55337 27.5565C3.29473 27.6649 2.95057 27.811 2.75241 27.9444C2.55426 28.0779 1.90557 28.0967 2.18507 27.5127C2.46665 26.9286 2.92345 26.7138 2.94222 26.1777C2.94222 26.1777 3.4908 26.3738 3.64932 26.5073C3.80784 26.6429 3.72858 26.3842 3.72858 26.3842C3.72858 26.3842 2.85462 25.4143 1.14215 25.9003C1.14215 25.9003 0.359967 26.1381 0.750017 25.4268C0.750017 25.4268 1.71367 24.4632 2.33107 24.0001C2.33107 24.0001 2.548 24.1315 2.87339 24.4924C2.87339 24.4924 3.02566 24.5383 2.92345 24.3693C2.82124 24.2004 2.55009 23.7457 2.20175 23.4766C1.85551 23.2054 0.916883 22.9531 0.58315 22.8592C0.249417 22.7653 0.224388 22.3941 0.537262 22.2689C0.954428 22.1041 1.8263 22.0812 3.01523 22.4963C3.01523 22.4963 4.36267 23.074 5.50154 23.6101C6.6404 24.1441 8.186 24.5904 8.39875 24.2776L7.79178 24.0857C7.79178 24.0857 8.23397 23.6664 8.44881 23.3827C8.66365 23.0991 9.26854 22.4775 9.57099 22.1584C9.57099 22.1584 10.4262 21.3345 10.7182 20.8672C11.0081 20.4 11.321 19.7284 11.6923 19.2737C12.195 18.6646 12.7853 18.3475 12.7853 18.3475C12.7853 18.3475 13.2483 18.6854 13.7301 19.1527C13.7301 19.1527 13.678 18.8899 13.5174 18.6959C13.3526 18.4998 11.7507 16.9334 11.6485 15.6068C11.5463 14.2802 12.5579 12.7805 12.9375 12.307C13.3171 11.8335 13.6279 11.3579 13.8073 11.02C13.8073 11.02 14.139 10.1982 14.2829 9.7727C14.2829 9.7727 14.7584 7.83914 15.5073 7.18836C16.2582 6.53758 17.4387 6.09121 18.88 5.92018C18.88 5.92018 18.5484 5.82631 18.1312 5.83048C18.1312 5.83048 17.9352 5.77417 18.2021 5.59061C18.344 5.49258 19.6247 4.41212 20.7156 4.35789C20.7156 4.35789 21.333 4.2828 21.65 4.93775C21.9942 5.6511 22.6783 6.18716 23.2499 6.09956L23.0246 5.8722C23.0246 5.8722 22.914 5.79085 23.1643 5.74288C23.1643 5.74288 23.4251 5.66362 23.5648 5.5635C23.7067 5.46338 24.032 5.46755 23.9695 5.8284C23.909 6.18925 23.617 6.4166 23.2436 6.56261C22.8702 6.7107 22.3175 6.84628 22.0255 6.94015C21.6041 7.07572 21.5541 7.36148 21.5645 7.50749C21.5645 7.50749 20.9992 6.91303 20.7615 6.9026C20.7615 6.9026 21.7355 7.79116 21.8377 8.92586C21.9337 9.98754 21.6834 10.3317 22.2028 11.2995C22.2028 11.2995 22.5761 11.992 22.841 12.3466C23.0392 12.6136 23.8485 13.6774 23.788 15.0311C23.7254 16.4432 22.7618 17.897 22.5678 18.0618C22.5678 18.0618 24.0112 17.1795 24.1822 14.7641C24.1822 14.7641 26.3744 14.0236 29.4865 15.6819L29.7305 15.5025ZM41.5196 21.6077C41.2923 21.5368 41.188 21.3574 39.2795 21.1384C39.2795 21.1426 39.2795 21.1488 39.2815 21.1551C39.2815 21.1551 38.5077 21.0696 38.0092 20.9152C38.0926 20.6712 38.1468 20.1935 38.8852 19.3946C38.8852 19.3946 38.8873 19.403 38.8915 19.4134C39.0333 19.282 39.6466 18.7084 39.9865 18.3684C40.3724 17.9825 40.4079 17.4944 40.2139 17.3005C40.0241 17.1086 39.7842 16.9626 39.5047 17.0147C39.2419 17.0627 38.9687 17.1565 38.2866 17.532C38.2908 17.5403 38.2949 17.5487 38.2991 17.557C38.2991 17.557 36.6534 18.5123 35.6397 19.2298C35.2413 19.2757 34.4174 19.3529 34.4174 19.3529L33.8772 19.453C33.8772 19.453 33.7624 19.3133 33.6018 19.1485L33.3786 19.3154L33.3807 19.3279L33.3849 19.3258L33.4224 19.5865C33.4224 19.5865 33.1429 19.6971 33.1721 19.7826C33.1721 19.7826 33.1888 19.9223 33.3661 19.8952C33.3661 19.8952 33.6289 19.8452 33.8146 19.7576C34.0002 19.67 34.553 19.5365 34.895 19.5552L34.9305 19.6262C34.9305 19.6262 34.6844 19.7179 34.5279 19.7909C34.3715 19.8619 34.1525 19.9223 34.1129 19.9995C34.1129 19.9995 34.6281 19.9474 35.0035 19.7993C35.0035 19.7993 35.623 19.5719 36.1716 19.1881C36.7201 18.8064 38.0718 17.872 38.7893 17.5633C39.5068 17.2567 39.9949 17.2191 40.0929 17.5362C40.193 17.8553 39.8593 18.1473 39.6486 18.3267C39.4401 18.5061 38.3533 19.4051 37.884 20.448C37.4168 21.4909 37.9195 21.8684 38.2115 21.8017C38.2115 21.8017 37.8235 21.5806 37.9758 21.0633C37.9758 21.0633 38.3721 21.1968 38.7163 21.2594C39.0625 21.3219 40.8397 21.4951 41.1963 21.6911C41.553 21.8851 41.893 22.0666 41.8721 22.3669C41.8492 22.6652 41.3569 22.807 41.0649 22.8571C40.7729 22.9093 39.8259 22.7445 39.4693 22.757C39.1147 22.7695 38.6099 22.7486 38.1322 23.291C38.1322 23.291 38.1114 23.4119 38.3158 23.366C38.3158 23.366 38.6537 23.9021 38.9144 24.0147C39.1752 24.1295 39.632 24.4653 39.8093 24.6447C39.9845 24.824 39.9469 25.0931 39.8781 25.1724C39.8113 25.2516 39.5089 25.3643 38.977 25.212C38.4451 25.0597 37.7422 24.5654 37.4752 24.3944C37.2103 24.2212 36.1945 23.7478 35.381 24.1503C35.381 24.1503 34.2359 24.8804 33.4162 24.6155C33.4162 24.6155 33.6707 24.4319 33.9189 24.3985C34.1692 24.3652 34.0607 24.1211 33.9272 24.1295C33.7958 24.1399 33.437 24.1232 32.7758 24.5737C32.1146 25.0243 31.4618 25.4143 30.7672 25.454C30.0747 25.4915 29.9704 24.9075 30.0872 24.4966C30.204 24.0877 30.6942 23.3389 30.9424 23.097C30.9424 23.097 31.1051 22.7278 31.0696 22.4504C31.0342 22.1709 30.8485 22.4691 30.8548 22.5547C30.8631 22.6444 30.8423 22.7486 30.7693 22.7841C30.6963 22.8196 29.7764 22.2251 29.7138 22.0979L29.4489 22.3085C29.4489 22.3085 29.7222 22.6715 30.4752 22.9989C30.4752 22.9989 30.5711 23.1095 30.5231 23.2326C30.471 23.3556 30.0288 23.7603 29.8432 24.2192C29.6554 24.678 29.5595 25.5624 30.2144 25.7773C30.8694 25.9942 31.4346 25.6396 31.5619 25.5854C31.6912 25.5291 32.7592 24.9596 32.9281 24.8428C32.9281 24.8428 33.5184 25.0493 34.1754 24.897C34.1754 24.897 35.0869 24.6175 35.2726 24.5299C35.4582 24.4423 35.8483 24.2942 36.0965 24.2588C36.3447 24.2233 36.6159 24.2484 36.7514 24.2963C36.8891 24.3443 37.4585 24.6134 37.6775 24.774C37.8965 24.9346 37.8653 24.9075 38.3054 25.2141C38.7455 25.5207 39.3817 25.5311 39.3817 25.5311C39.3817 25.5311 39.3817 25.5353 39.3796 25.5437C39.6904 25.5332 40.0679 25.4769 40.12 25.2662C40.2097 24.9096 40.2389 24.7135 39.4776 24.0961C39.4776 24.0982 39.4776 24.0982 39.4776 24.1003C39.4776 24.1003 38.8081 23.6748 38.5703 23.2805C38.5703 23.2805 38.4284 22.9948 39.438 22.9927C39.438 22.9927 39.438 22.9948 39.4401 23.001C39.5715 23.0031 39.803 23.0115 40.1284 23.049C40.6665 23.1116 41.3194 23.1178 41.5321 23.0115C41.747 22.9072 42.0703 22.6736 42.0766 22.3753C42.0891 22.0833 41.747 21.6786 41.5196 21.6077ZM18.6506 10.0918C18.6589 10.7739 18.8383 10.801 19.001 10.8031C19.001 10.8031 19.3431 10.7948 19.2993 10.2337C19.2576 9.67467 19.3348 9.74141 19.3952 9.73724C19.4557 9.73307 19.4808 10.071 19.583 10.0647C19.6414 10.0605 19.6372 9.94374 19.6163 9.86865C19.6163 9.86865 19.4995 9.34719 19.1303 9.37639C19.1283 9.37848 18.6423 9.41185 18.6506 10.0918ZM19.6601 8.57752C19.6601 8.57752 19.8145 8.6547 19.8687 8.59212C19.923 8.52955 19.8395 8.41691 19.8395 8.41691C19.8395 8.41691 19.4474 7.94343 19.1512 7.75779L19.0177 7.73902L18.7778 7.90588L18.7987 7.99349C18.8008 7.9914 19.3556 8.27508 19.6601 8.57752ZM16.3687 7.99975C16.0558 8.12281 15.7638 8.60881 15.7763 8.7715C15.7888 8.9342 15.9849 9.0218 16.0767 8.83825C16.0767 8.83825 16.156 8.492 16.5669 8.04564C16.6044 7.96846 16.5564 7.92466 16.3687 7.99975Z" fill="black"/>
<path d="M17.3011 33.3196C17.3637 33.3593 17.4283 33.3989 17.4951 33.4406C17.4283 33.3989 17.3637 33.3593 17.3011 33.3196ZM29.4239 15.6527C26.3452 14.0362 24.1822 14.7683 24.1822 14.7683C24.0112 17.1837 22.5678 18.066 22.5678 18.066C22.7618 17.9033 23.7254 16.4474 23.788 15.0353C23.8485 13.6816 23.0392 12.6178 22.8411 12.3508C22.5762 11.9962 22.2028 11.3037 22.2028 11.3037C21.6834 10.3359 21.9316 9.99173 21.8378 8.93004C21.7356 7.79535 20.7615 6.90679 20.7615 6.90679C20.9993 6.91722 21.5645 7.51168 21.5645 7.51168C21.552 7.36567 21.6042 7.07783 22.0255 6.94433C22.3175 6.85047 22.8703 6.71281 23.2436 6.5668C23.617 6.4187 23.909 6.19343 23.9695 5.83259C24.03 5.47174 23.7046 5.46757 23.5648 5.56769C23.4251 5.66781 23.1644 5.74707 23.1644 5.74707C22.9161 5.79504 23.0246 5.87639 23.0246 5.87639L23.2499 6.10374C22.6784 6.19135 21.9942 5.65738 21.65 4.94194C21.333 4.2849 20.7156 4.36208 20.7156 4.36208C19.6226 4.41631 18.3419 5.49677 18.2022 5.5948C17.9331 5.77836 18.1312 5.83467 18.1312 5.83467C18.5484 5.83259 18.8801 5.92436 18.8801 5.92436C17.4408 6.0954 16.2582 6.54177 15.5073 7.19255C14.7564 7.84333 14.2829 9.77689 14.2829 9.77689C14.139 10.2024 13.8073 11.0242 13.8073 11.0242C13.6259 11.3621 13.3172 11.8377 12.9375 12.3112C12.56 12.7847 11.5484 14.2865 11.6485 15.611C11.7507 16.9375 13.3526 18.5061 13.5174 18.7001C13.6801 18.894 13.7301 19.1569 13.7301 19.1569C13.2504 18.6896 12.7853 18.3517 12.7853 18.3517C12.7853 18.3517 12.1929 18.6688 11.6923 19.2778C11.321 19.7305 11.0081 20.4042 10.7182 20.8714C10.4262 21.3386 9.57101 22.1625 9.57101 22.1625C9.26856 22.4817 8.66367 23.1033 8.44883 23.3869C8.23399 23.6685 7.79179 24.0898 7.79179 24.0898L8.39877 24.2817C8.18601 24.5946 6.63833 24.1483 5.50155 23.6143C4.36269 23.0782 3.01524 22.5004 3.01524 22.5004C1.82632 22.0875 0.954445 22.1104 0.537279 22.2731C0.224405 22.3982 0.249434 22.7695 0.583167 22.8634C0.916899 22.9552 1.85552 23.2096 2.20177 23.4808C2.5501 23.7499 2.82126 24.2025 2.92347 24.3735C3.02567 24.5446 2.87341 24.4966 2.87341 24.4966C2.5501 24.1357 2.33109 24.0043 2.33109 24.0043C1.71369 24.4674 0.750034 25.431 0.750034 25.431C0.359984 26.1444 1.14217 25.9045 1.14217 25.9045C2.85463 25.4164 3.7286 26.3884 3.7286 26.3884C3.7286 26.3884 3.80786 26.6492 3.64934 26.5115C3.49081 26.378 2.94224 26.1819 2.94224 26.1819C2.92347 26.7159 2.46458 26.9307 2.18508 27.5169C1.9035 28.1009 2.55428 28.08 2.75243 27.9486C2.95058 27.8151 3.29474 27.6691 3.55339 27.5607C3.81203 27.4522 3.56173 27.2937 3.56173 27.2937C3.87461 27.1206 5.39517 28.0112 6.00215 28.1718C6.60704 28.3324 6.27957 27.9153 6.27957 27.9153C6.96372 27.9507 8.44674 29.4984 8.81593 29.6778C9.18513 29.8551 9.47088 29.7174 9.47088 29.7174C9.6753 29.2856 9.33948 28.7788 9.33948 28.7788C8.71582 27.8026 9.47714 27.4939 9.47714 27.4939C9.37285 27.6796 9.31862 28.128 9.31862 28.128C10.2134 27.8214 10.9748 27.3187 11.3898 26.9015C11.8008 26.4844 12.3055 26.0902 12.3055 26.0902C13.6592 25.1703 14.6396 25.1995 14.7564 25.1912C14.8753 25.1828 14.8148 25.3497 14.8148 25.3497L14.456 25.4164L14.9608 26.3947C14.9796 26.4322 15.0004 26.4614 15.0108 26.4823L29.5094 15.7006C29.4782 15.6819 29.4531 15.6673 29.4239 15.6527ZM17.3803 13.0662C17.3803 13.0662 17.9227 13.3812 18.2105 12.8681C18.2105 12.8681 18.3774 12.7221 18.3941 12.9286C18.4087 13.1351 18.2856 13.4709 17.9665 13.5543C17.6473 13.6398 17.324 13.2936 17.2594 13.2102C17.1926 13.1246 17.3053 13.0287 17.3803 13.0662ZM18.3753 15.9843C18.4274 16.4557 18.1604 16.8625 17.8684 16.9146C17.5764 16.9667 17.1613 16.583 17.1071 16.0678C17.0529 15.5546 17.2239 15.0812 17.6369 15.0499C18.0207 15.0186 18.3252 15.515 18.3753 15.9843ZM15.7763 8.77152C15.7638 8.61091 16.0558 8.12283 16.3687 7.99976C16.5564 7.92467 16.6044 7.96848 16.5648 8.04357C16.156 8.48993 16.0746 8.83618 16.0746 8.83618C15.9849 9.02182 15.7889 8.93421 15.7763 8.77152ZM16.0684 10.0689C15.9808 9.49739 16.4313 9.38475 16.4313 9.38475C16.8234 9.28046 16.9632 9.74769 16.9632 9.74769C16.9632 9.74769 17.0112 9.83946 16.959 9.88118C16.8756 9.94793 16.8026 9.56622 16.6879 9.62045C16.5731 9.67468 16.7337 10.0168 16.7337 10.0168C16.8505 10.3797 16.7817 10.6363 16.5648 10.6967C16.3437 10.7593 16.1581 10.6404 16.0684 10.0689ZM18.8071 18.116C18.7653 18.3559 18.5568 18.7272 18.1312 18.7898C17.7057 18.8523 17.2761 18.4414 17.2385 18.3538C17.2031 18.2683 17.3032 18.2308 17.3824 18.2975C17.4951 18.3955 18.0311 18.6333 18.6381 18.0535C18.6381 18.0555 18.8467 17.8762 18.8071 18.116ZM19.583 10.0668C19.4808 10.0752 19.4537 9.73517 19.3953 9.73934C19.3369 9.74352 19.2576 9.67677 19.2993 10.2358C19.3431 10.7969 19.001 10.8052 19.001 10.8052C18.8383 10.8031 18.659 10.776 18.6506 10.0939C18.6444 9.41396 19.1304 9.3785 19.1304 9.3785C19.4975 9.34929 19.6164 9.87075 19.6164 9.87075C19.6351 9.94376 19.6414 10.0606 19.583 10.0668ZM19.8687 8.59005C19.8145 8.65263 19.6602 8.57545 19.6602 8.57545C19.3556 8.27301 18.8008 7.98933 18.8008 7.98933L18.7799 7.90173L19.0198 7.73486L19.1533 7.75364C19.4495 7.93927 19.8416 8.41276 19.8416 8.41276C19.8416 8.41276 19.923 8.52748 19.8687 8.59005ZM41.1984 21.6911C40.8418 21.4951 39.0646 21.3199 38.7184 21.2594C38.3742 21.1968 37.9779 21.0633 37.9779 21.0633C37.8256 21.5785 38.2136 21.8017 38.2136 21.8017C37.9216 21.8684 37.4189 21.493 37.8861 20.448C38.3554 19.4051 39.4422 18.5061 39.6507 18.3267C39.8593 18.1473 40.1931 17.8553 40.095 17.5362C39.997 17.217 39.511 17.2567 38.7914 17.5633C38.0739 17.8699 36.7222 18.8044 36.1737 19.1882C35.6251 19.5719 35.0056 19.7993 35.0056 19.7993C34.6322 19.9474 34.115 19.9995 34.115 19.9995C34.1546 19.9224 34.3715 19.8598 34.53 19.791C34.6865 19.718 34.9326 19.6262 34.9326 19.6262L34.8971 19.5553C34.5551 19.5365 34.0023 19.6679 33.8167 19.7576C33.631 19.8452 33.3682 19.8952 33.3682 19.8952C33.193 19.9244 33.1742 19.7826 33.1742 19.7826C33.145 19.6971 33.4245 19.5865 33.4245 19.5865L33.387 19.3258L19.2472 29.8613H19.2451C22.5365 31.3903 24.3533 31.1128 24.7684 31.1087C25.1855 31.1066 24.785 31.3172 24.785 31.3172C22.4719 31.701 19.8062 30.5726 19.8062 30.5726C19.631 31.1796 19.0407 31.9951 18.878 32.185C18.7153 32.3748 18.3628 32.6084 18.0812 32.8232C17.883 32.9755 17.6745 33.2216 17.5681 33.3551C17.5618 33.3634 17.5556 33.3697 17.5514 33.376C17.5451 33.3843 17.541 33.3906 17.5347 33.3968C17.5097 33.4281 17.4951 33.449 17.4951 33.449C20.044 35.03 22.9349 35.1635 25.1021 34.7922C26.9147 34.4815 28.7919 33.6972 30.3333 32.331C32.0396 30.8187 32.9907 29.2544 33.5872 27.7004C34.0816 26.4176 34.1796 24.9054 34.1796 24.9054C33.5247 25.0577 32.9323 24.8512 32.9323 24.8512C32.7633 24.968 31.6954 25.5395 31.5661 25.5937C31.4368 25.648 30.8715 26.0026 30.2186 25.7856C29.5637 25.5708 29.6596 24.6864 29.8473 24.2275C30.0351 23.7686 30.4773 23.364 30.5273 23.2409C30.5753 23.1179 30.4794 23.0073 30.4794 23.0073C29.7264 22.6798 29.4531 22.3169 29.4531 22.3169L29.718 22.1062C29.7806 22.2355 30.7005 22.8279 30.7735 22.7925C30.8465 22.757 30.8652 22.6527 30.859 22.563C30.8527 22.4754 31.0384 22.1792 31.0738 22.4587C31.1093 22.7382 30.9466 23.1053 30.9466 23.1053C30.6963 23.3473 30.2061 24.0961 30.0914 24.5049C29.9746 24.9138 30.0789 25.4999 30.7714 25.4623C31.4639 25.4227 32.1188 25.0326 32.78 24.5821C33.4412 24.1295 33.8 24.1483 33.9314 24.1378C34.0649 24.1274 34.1734 24.3714 33.9231 24.4069C33.6748 24.4403 33.4204 24.6238 33.4204 24.6238C34.2401 24.8866 35.3852 24.1587 35.3852 24.1587C36.2008 23.7561 37.2145 24.2296 37.4794 24.4027C37.7443 24.5758 38.4493 25.0702 38.9812 25.2204C39.5131 25.3726 39.8155 25.26 39.8823 25.1807C39.9511 25.1015 39.9886 24.8324 39.8134 24.653C39.6361 24.4736 39.1814 24.1378 38.9186 24.0231C38.6579 23.9105 38.32 23.3744 38.32 23.3744C38.1177 23.4203 38.1364 23.2993 38.1364 23.2993C38.6141 22.7591 39.1189 22.7799 39.4734 22.7653C39.8301 22.7528 40.775 22.9176 41.0691 22.8655C41.3611 22.8133 41.8534 22.6736 41.8763 22.3753C41.8951 22.0666 41.5551 21.8851 41.1984 21.6911Z" fill="white"/>
</svg>
