<svg width="177" height="40" viewBox="0 0 177 40" fill="none" xmlns="http://www.w3.org/2000/svg">
<path d="M10.1501 31.4085C10.3613 31.4085 10.5092 31.4437 10.6078 31.5212C10.7064 31.5916 10.805 31.662 10.9107 31.7183C11.1149 31.831 11.2346 31.9085 11.2557 31.9578C11.2768 32.0071 11.298 32.0563 11.312 32.0986C11.4318 32.2746 11.5092 32.4225 11.5445 32.5423C11.5797 32.662 11.6078 32.7676 11.6219 32.8592C11.636 32.8944 11.636 33.1408 11.6219 33.5986L11.5304 35.9578C11.5022 36.8944 10.9952 37.3662 10.0092 37.3662C8.65009 37.3662 7.56558 36.6831 6.74163 35.3169C6.59375 35.1127 6.44586 34.9014 6.30502 34.6972C6.16417 34.493 6.04446 34.2042 5.95995 33.8451C5.74869 32.9507 5.65009 31.9648 5.65009 30.8873C5.65009 28.9648 6.08671 27.3592 6.94586 26.0634C7.81206 24.7676 9.02332 24.1197 10.5726 24.1197C11.5444 24.1197 12.3614 24.5282 13.0374 25.338C13.2487 25.5775 13.6149 26.0141 14.136 26.6479C14.1642 26.7254 14.1994 26.7676 14.2487 26.7676C14.4106 26.7676 14.4881 26.7747 14.474 26.7958C14.4599 26.8099 14.4529 26.8169 14.4529 26.8169C14.6642 26.8169 14.7628 26.7606 14.7628 26.6479L14.8332 22.8592C14.8332 22.8592 14.3261 22.7535 13.3121 22.5493C12.3684 22.3733 11.4529 22.2888 10.5585 22.2888C8.24164 22.2888 6.26276 23.0564 4.60783 24.5986C2.7698 26.2958 1.85431 28.5563 1.85431 31.3662C1.85431 33.6338 2.47404 35.4859 3.71347 36.9155C4.99516 38.4437 6.72051 39.2042 8.88248 39.2042C10.629 39.2042 12.1994 38.9296 13.6078 38.3733C14.129 38.162 14.6783 37.9155 15.2416 37.6127V33.5141C15.2416 32.5916 15.643 31.8944 16.4459 31.4155H10.1501V31.4085ZM154.037 33.507C154.777 34.8873 155.509 36.1338 156.22 37.2465C156.537 37.7535 156.699 38.0986 156.699 38.2676C156.699 38.4225 156.643 38.6127 156.537 38.8169H161.946V38.1479C161.657 38.1479 161.171 37.7746 160.495 37.0282C159.298 35.7394 157.953 33.7817 156.453 31.1409C158.136 30.6127 159.242 29.7183 159.77 28.4507C159.939 28.0352 160.023 27.5986 160.023 27.1409C160.023 25.0775 159.037 23.6972 157.073 22.993C156.425 22.7747 155.657 22.662 154.777 22.662H147.101V23.331H147.326C147.763 23.331 148.044 23.5775 148.164 24.0704C148.227 24.2958 148.256 24.7324 148.256 25.3803V36.1056C148.256 36.7606 148.227 37.1902 148.164 37.4155C148.044 37.9085 147.763 38.1549 147.326 38.1549H147.101V38.824H152.826V38.1549H152.601C152.157 38.1549 151.875 37.9085 151.756 37.4155C151.692 37.1902 151.664 36.7606 151.664 36.1056V34.0282C151.664 33.2324 151.671 32.4366 151.692 31.6268C152.023 31.669 152.319 31.7747 152.573 31.9366L154.037 33.507ZM151.72 30.669V28.3592C151.735 27.6268 151.749 26.9507 151.763 26.331C151.777 26.1901 151.791 25.8944 151.805 25.4507C151.819 25.007 151.833 24.662 151.847 24.4226C152.27 24.3451 152.692 24.3029 153.122 24.3029C154.199 24.3029 155.009 24.6409 155.551 25.331C155.805 25.662 155.995 26.0564 156.122 26.493C156.213 26.831 156.256 27.0775 156.256 27.2324C156.256 28.5352 155.953 29.4789 155.333 30.0704C154.826 30.5493 154.08 30.7817 153.087 30.7817C152.749 30.7887 152.291 30.7535 151.72 30.669ZM144.284 31.9578V28.7395L143.889 29.0986L143.495 29.2676C143.481 29.2676 143.474 29.2676 143.474 29.2676H143.467C143.46 29.2676 143.446 29.2676 143.439 29.2676C143.396 29.2676 143.319 29.2887 143.213 29.3239C143.101 29.3662 140.735 29.3873 139.699 29.3873H138.643C138.643 28.9718 138.643 28.2183 138.643 27.1268C138.643 26.8873 138.657 26.0352 138.685 24.5564H140.551C141.889 24.5564 142.904 24.8873 143.58 25.5564C143.84 25.7958 144.101 26.0423 144.368 26.2958C144.566 26.5211 144.671 26.8662 144.699 27.3451H145.277L145.171 22.6761H134.389V23.3451H134.594C134.995 23.3451 135.249 23.5915 135.361 24.0845C135.418 24.3099 135.446 24.7465 135.446 25.3944V36.1197C135.446 36.7747 135.418 37.2042 135.361 37.4296C135.249 37.9225 134.995 38.169 134.594 38.169H134.389V38.838H146.002L146.213 33.9507H145.629C145.601 34.1408 145.544 34.2747 145.46 34.3592C145.333 34.4718 145.249 34.5916 145.192 34.7113C144.72 35.7113 143.953 36.4155 142.889 36.8099C142.326 37.0141 141.664 37.1197 140.918 37.1197C140.129 37.1197 139.573 37.0211 139.242 36.8099C138.784 36.5211 138.558 35.9648 138.558 35.1408V33.662C138.558 33.2324 138.566 32.5704 138.58 31.6831L143.312 31.5916L144.284 31.9578ZM104.347 26.3592V33.2183C104.347 34.5211 103.981 35.5493 103.242 36.2887C102.911 36.6197 102.523 36.8662 102.101 37.0282C101.826 37.1408 101.551 37.1972 101.277 37.1972C100.974 37.1972 100.713 37.1549 100.495 37.0775C99.7134 36.8099 99.1078 36.3521 98.6712 35.7042C98.2345 35.0634 98.0162 34.3169 98.0162 33.4789C98.0162 31.0211 98.0444 28.3169 98.1078 25.3803C98.1219 24.7113 98.1571 24.2747 98.1993 24.0704C98.3402 23.5775 98.6219 23.331 99.0444 23.331H99.2768V22.6409H93.3895V23.331H93.6148C94.0585 23.331 94.3402 23.5775 94.467 24.0704C94.5303 24.2958 94.5585 24.7324 94.5585 25.3803V33.1197C94.5585 35.0423 95.1923 36.5634 96.4599 37.669C97.6078 38.6831 98.9951 39.1901 100.629 39.1901C102.404 39.1901 103.875 38.6268 105.037 37.5C106.206 36.3733 106.791 34.9084 106.791 33.1127V26.5845C106.791 25.331 106.904 24.4507 107.136 23.9437C107.319 23.5282 107.58 23.324 107.918 23.324H108.143V22.6549L102.397 22.6338V23.3028H102.946C103.601 23.3028 104.03 23.8099 104.228 24.824C104.305 25.2324 104.347 25.7395 104.347 26.3592ZM78.4036 38.8169H86.1219C88.4247 38.8169 90.1148 38.4296 91.2064 37.6479C92.1501 36.9648 92.6219 35.9859 92.6219 34.7183C92.6219 32.8944 91.6782 31.6127 89.7909 30.8803C89.1219 30.6268 88.305 30.4648 87.3472 30.4014V30.2113C88.5303 30.1479 89.4951 29.8592 90.2487 29.331C91.1289 28.6972 91.5726 27.831 91.5726 26.7324C91.5726 24.8732 90.4599 23.6268 88.2416 22.993C87.4599 22.7747 86.5233 22.662 85.4388 22.662H78.4177V23.331H78.6571C79.1219 23.331 79.4177 23.5775 79.5444 24.0704C79.6078 24.2958 79.643 24.7324 79.643 25.3803V36.1056C79.643 36.7606 79.6148 37.1902 79.5444 37.4155C79.4177 37.9085 79.1219 38.1549 78.6571 38.1549H78.4177V38.8169H78.4036ZM83.3191 29.5282C83.3191 26.669 83.3261 24.8944 83.3402 24.2113C83.8965 24.1338 84.3684 24.0916 84.7557 24.0916C85.812 24.0916 86.6008 24.4085 87.1289 25.0423C87.3684 25.331 87.5374 25.662 87.643 26.0423C87.7486 26.4225 87.7979 26.6761 87.7979 26.8028C87.7979 27.0916 87.7768 27.3451 87.7275 27.5634C87.4529 28.8662 86.5937 29.5211 85.143 29.5211H83.3191V29.5282ZM83.3191 35.1972C83.3191 34.9155 83.3191 34.6901 83.3191 34.5282C83.2698 34.3521 83.2487 34.1338 83.2487 33.8591C83.2487 33.0211 83.2698 32.1761 83.3191 31.331H84.481C86.0022 31.331 87.1289 31.7183 87.8543 32.5C88.1853 32.8662 88.4176 33.2606 88.5444 33.6831C88.6712 34.1056 88.7346 34.4366 88.7346 34.669C88.7346 35.1761 88.6712 35.5563 88.5444 35.8099C88.4458 36 88.2486 36.2465 87.9458 36.5493C87.5655 36.9155 86.7698 37.0986 85.5726 37.0986C85.0585 37.0986 84.3191 37.1056 83.3402 37.1268C83.3261 36.2394 83.3191 35.5916 83.3191 35.1972ZM131.305 24.7113C130.882 24.6972 130.206 24.669 129.263 24.6409C129.249 25.2747 129.235 25.9789 129.22 26.7394C129.192 27.8028 129.178 29.9507 129.164 33.169L129.143 36.0986C129.143 36.7536 129.171 37.1831 129.22 37.4085C129.326 37.9014 129.573 38.1479 129.946 38.1479H130.143V38.8169H125.192V38.1479H125.389C125.77 38.1479 126.009 37.9014 126.115 37.4085C126.171 37.1831 126.192 36.7536 126.192 36.0986V24.6338C125.932 24.6479 125.382 24.655 124.551 24.655C123.988 24.655 123.587 24.6831 123.368 24.7254C123.044 24.7888 122.713 24.9507 122.382 25.2254C122.242 25.3381 122.122 25.4367 122.044 25.5352C121.918 25.6902 121.847 25.8592 121.847 26.0352L121.826 25.0071V22.6479H133.537L133.516 24.1972V26.1761C133.108 25.3169 132.664 24.8521 132.178 24.7676L131.305 24.7113ZM75.0585 24.7113C74.636 24.6972 73.9599 24.669 73.0162 24.6409C73.0022 25.2747 72.9881 25.9789 72.981 26.7394C72.9529 27.8028 72.9388 29.9507 72.9247 33.169L72.9036 36.0986C72.9036 36.7536 72.9317 37.1831 72.981 37.4085C73.0867 37.9014 73.3261 38.1479 73.7064 38.1479H73.9036V38.8169H68.9529V38.1479H69.1501C69.5303 38.1479 69.7698 37.9014 69.8754 37.4085C69.9318 37.1831 69.9529 36.7536 69.9529 36.0986V24.6338C69.6923 24.6479 69.143 24.655 68.3191 24.655C67.7487 24.655 67.3543 24.6831 67.136 24.7254C66.812 24.7888 66.474 24.9507 66.1501 25.2254C66.0022 25.3381 65.8895 25.4367 65.812 25.5352C65.6853 25.6902 65.6149 25.8592 65.6149 26.0352L65.5937 25.0071V22.6479H77.2979L77.2768 24.1972V26.1761C76.8683 25.3169 76.4247 24.8521 75.9388 24.7676L75.0585 24.7113ZM120.629 22.9014C120.615 22.9014 120.53 22.9366 120.368 23C120.213 23.0634 120.073 23.0775 119.932 23.0493C119.706 22.9226 119.333 22.7747 118.798 22.5986C117.636 22.3944 116.657 22.2888 115.868 22.2888C113.847 22.2888 112.249 22.8169 111.087 23.8592C110.023 24.8099 109.495 25.8873 109.495 27.0775C109.495 28.4437 109.967 29.5634 110.911 30.4366C111.594 31.0775 112.72 31.7183 114.277 32.3662C114.706 32.4648 115.291 32.6338 116.023 32.8944C116.382 33.0352 116.847 33.2676 117.411 33.5845C117.911 34.0141 118.206 34.338 118.312 34.5634C118.453 34.8451 118.46 35.1479 118.34 35.4437C118.15 35.9225 117.84 36.338 117.411 36.7042C116.932 37.0986 116.192 37.3028 115.199 37.3028C114.939 37.3028 114.397 37.1972 113.551 36.993C113.277 36.9296 112.805 36.7535 112.136 36.4648C111.587 36.2394 111.115 35.9226 110.72 35.5141C110.516 35.338 110.08 34.9719 109.411 34.4155L109.46 36.2535V38.5141C109.495 38.5141 109.629 38.4859 109.868 38.4226C110.058 38.3733 110.22 38.3662 110.354 38.3944C110.594 38.5211 110.981 38.6761 111.516 38.8451C112.819 39.0634 113.995 39.1761 115.037 39.1761C116.995 39.1761 118.594 38.7042 119.847 37.7535C121.101 36.8099 121.72 35.655 121.72 34.2888C121.72 32.5423 120.749 31.1057 118.819 29.9789C118.58 29.8381 118.157 29.6831 117.558 29.5282C116.854 29.338 116.375 29.1831 116.122 29.0704C115.657 28.9155 115.037 28.669 114.27 28.331C113.911 28.1409 113.467 27.8662 112.932 27.5C112.777 27.3592 112.608 27.0212 112.418 26.5C112.368 26.3733 112.368 26.1831 112.418 25.9296C112.453 25.6902 112.523 25.5071 112.622 25.3803C112.932 25 113.115 24.7817 113.171 24.7254C113.235 24.669 113.397 24.5775 113.671 24.4507C114.242 24.1831 114.868 24.0493 115.551 24.0493C116.171 24.0493 116.749 24.1268 117.298 24.2888C117.946 24.4789 118.53 24.7324 119.044 25.0493C119.643 25.4155 120.171 25.8732 120.615 26.4296V22.9014H120.629ZM173.192 22.9014C173.171 22.9014 173.094 22.9366 172.932 23C172.777 23.0634 172.629 23.0775 172.495 23.0493C172.277 22.9226 171.897 22.7747 171.361 22.5986C170.192 22.3944 169.22 22.2888 168.432 22.2888C166.411 22.2888 164.812 22.8169 163.65 23.8592C162.587 24.8099 162.058 25.8873 162.058 27.0775C162.058 28.4437 162.53 29.5634 163.474 30.4366C164.157 31.0775 165.284 31.7183 166.847 32.3662C167.277 32.4648 167.854 32.6338 168.594 32.8944C168.953 33.0352 169.418 33.2676 169.981 33.5845C170.481 34.0141 170.777 34.338 170.882 34.5634C171.023 34.8451 171.03 35.1479 170.911 35.4437C170.72 35.9225 170.411 36.338 169.988 36.7042C169.509 37.0986 168.77 37.3028 167.777 37.3028C167.516 37.3028 166.974 37.1972 166.129 36.993C165.854 36.9296 165.382 36.7535 164.713 36.4648C164.164 36.2394 163.692 35.9226 163.298 35.5141C163.094 35.338 162.657 34.9719 161.988 34.4155L162.037 36.2535V38.5141C162.073 38.5141 162.206 38.4859 162.453 38.4226C162.643 38.3733 162.805 38.3662 162.939 38.3944C163.178 38.5211 163.566 38.6761 164.094 38.8451C165.396 39.0634 166.573 39.1761 167.615 39.1761C169.573 39.1761 171.171 38.7042 172.425 37.7535C173.678 36.8099 174.305 35.655 174.305 34.2888C174.305 32.5423 173.333 31.1057 171.404 29.9789C171.164 29.8381 170.742 29.6831 170.143 29.5282C169.439 29.338 168.96 29.1831 168.706 29.0704C168.242 28.9155 167.622 28.669 166.854 28.331C166.495 28.1409 166.051 27.8662 165.516 27.5C165.361 27.3592 165.192 27.0212 165.002 26.5C164.953 26.3733 164.953 26.1831 165.002 25.9296C165.037 25.6902 165.101 25.5071 165.206 25.3803C165.516 25 165.699 24.7817 165.763 24.7254C165.826 24.669 165.988 24.5775 166.263 24.4507C166.826 24.1831 167.453 24.0493 168.136 24.0493C168.756 24.0493 169.34 24.1268 169.882 24.2888C170.53 24.4789 171.115 24.7324 171.629 25.0493C172.227 25.4155 172.749 25.8732 173.199 26.4296V22.9014H173.192ZM131.305 24.7113C130.882 24.6972 130.206 24.669 129.263 24.6409C129.249 25.2747 129.235 25.9789 129.22 26.7394C129.192 27.8028 129.178 29.9507 129.164 33.169L129.143 36.0986C129.143 36.7536 129.171 37.1831 129.22 37.4085C129.326 37.9014 129.573 38.1479 129.946 38.1479H130.143V38.8169H125.192V38.1479H125.389C125.77 38.1479 126.009 37.9014 126.115 37.4085C126.171 37.1831 126.192 36.7536 126.192 36.0986V24.6338C125.932 24.6479 125.382 24.655 124.551 24.655C123.988 24.655 123.587 24.6831 123.368 24.7254C123.044 24.7888 122.713 24.9507 122.382 25.2254C122.242 25.3381 122.122 25.4367 122.044 25.5352C121.918 25.6902 121.847 25.8592 121.847 26.0352L121.826 25.0071V22.6479H133.537L133.516 24.1972V26.1761C133.108 25.3169 132.664 24.8521 132.178 24.7676L131.305 24.7113ZM64.0444 22.9014C64.0303 22.9014 63.9388 22.9366 63.7909 23C63.636 23.0634 63.4881 23.0775 63.3543 23.0493C63.1289 22.9226 62.7557 22.7747 62.2205 22.5986C61.0515 22.3944 60.0796 22.2888 59.2909 22.2888C57.2698 22.2888 55.6712 22.8169 54.5092 23.8592C53.4459 24.8099 52.9177 25.8873 52.9177 27.0775C52.9177 28.4437 53.3895 29.5634 54.3332 30.4366C55.0163 31.0775 56.143 31.7183 57.6994 32.3662C58.1289 32.4648 58.7134 32.6338 59.4458 32.8944C59.805 33.0352 60.2698 33.2676 60.8332 33.5845C61.3332 34.0141 61.6289 34.338 61.7346 34.5634C61.8684 34.8451 61.8825 35.1479 61.7627 35.4437C61.5726 35.9225 61.2627 36.338 60.8402 36.7042C60.3613 37.0986 59.6219 37.3028 58.6289 37.3028C58.3754 37.3028 57.8261 37.1972 56.981 36.993C56.7064 36.9296 56.2346 36.7535 55.5656 36.4648C55.0163 36.2394 54.5444 35.9226 54.1501 35.5141C53.9458 35.338 53.5092 34.9719 52.8402 34.4155L52.8895 36.2535V38.5141C52.9247 38.5141 53.0656 38.4859 53.298 38.4226C53.4881 38.3733 53.6501 38.3662 53.7909 38.3944C54.0303 38.5211 54.4177 38.6761 54.9458 38.8451C56.2487 39.0634 57.4247 39.1761 58.467 39.1761C60.4247 39.1761 62.0233 38.7042 63.2768 37.7535C64.5303 36.8099 65.1571 35.655 65.1571 34.2888C65.1571 32.5423 64.1853 31.1057 62.2487 29.9789C62.0092 29.8381 61.5937 29.6831 60.9881 29.5282C60.2839 29.338 59.805 29.1831 59.5515 29.0704C59.0867 28.9155 58.474 28.669 57.6994 28.331C57.3402 28.1409 56.8965 27.8662 56.3613 27.5C56.2064 27.3592 56.0374 27.0212 55.8473 26.5C55.798 26.3733 55.798 26.1831 55.8473 25.9296C55.8825 25.6902 55.9529 25.5071 56.0515 25.3803C56.3613 25 56.5444 24.7817 56.6008 24.7254C56.6571 24.669 56.8261 24.5775 57.1008 24.4507C57.6642 24.1831 58.2909 24.0493 58.981 24.0493C59.6008 24.0493 60.1853 24.1268 60.7346 24.2888C61.3825 24.4789 61.967 24.7324 62.481 25.0493C63.0796 25.4155 63.6078 25.8732 64.0515 26.4296V22.9014H64.0444ZM27.0092 31.4296V36.0986C27.0092 36.7536 26.9811 37.1831 26.9247 37.4085C26.805 37.9014 26.5374 38.1479 26.1149 38.1479H25.8966V38.8169H31.4036V38.1479H31.1853C30.7627 38.1479 30.4951 37.9014 30.3754 37.4085C30.3191 37.1831 30.2909 36.7536 30.2909 36.0986C30.2909 34.3028 30.305 32.5141 30.3332 30.7324L30.3966 25.3732C30.4106 24.7042 30.4388 24.2676 30.4811 24.0634C30.6149 23.5704 30.8825 23.324 31.2909 23.324H31.5092V22.6549H25.8895V23.324H26.1078C26.5304 23.324 26.798 23.5704 26.9177 24.0634C26.974 24.2887 27.0022 24.7254 27.0022 25.3732V29.4437H21.474C21.474 27.8873 21.4881 26.5282 21.5163 25.3732C21.5304 24.6901 21.5585 24.2535 21.6008 24.0634C21.7346 23.5704 22.0092 23.324 22.4247 23.324H22.6501V22.6549H17.0304V23.324H17.2487C17.6712 23.324 17.9388 23.5704 18.0585 24.0634C18.1149 24.2887 18.143 24.7254 18.143 25.3732V36.0986C18.143 36.7536 18.1149 37.1831 18.0585 37.4085C17.9388 37.9014 17.6712 38.1479 17.2487 38.1479H17.0304V38.8169H22.5374V38.1479H22.3191C21.8966 38.1479 21.629 37.9014 21.5092 37.4085C21.4529 37.1831 21.4247 36.7536 21.4247 36.0986V33.6197C21.4247 32.9648 21.4388 32.2395 21.467 31.4296H27.0092Z" fill="black"/>
<path d="M17.5375 7.04227C17.5375 6.57044 17.5375 6.20425 17.5375 5.93665L17.6008 3.27468C17.6431 1.67609 16.9952 0.873269 15.6642 0.873269H15.4248V0.309875L20.7276 0.331001V0.894394H20.5234C20.1713 0.894394 19.9037 1.02114 19.7206 1.27466C19.46 1.62677 19.3332 2.21129 19.3332 3.04932V14C19.3332 14.1056 19.136 14.162 18.7487 14.162C18.6008 14.162 18.5093 14.1409 18.467 14.1056L12.4177 5.85917C11.7839 5.0141 11.3614 4.35214 11.1501 3.88735L11.0656 3.90848C11.0656 4.19017 11.0727 4.55636 11.0868 5.00002C11.1009 5.54931 11.1079 5.90848 11.1079 6.07045L11.129 10.7676C11.1431 11.669 11.2558 12.3028 11.4811 12.662C11.798 13.162 12.3825 13.4085 13.2487 13.4085H13.4952V13.9718L8.00929 14.0141V13.4507H8.21352C8.53746 13.4507 8.79802 13.2958 9.00225 12.9859C9.26985 12.5564 9.40366 11.8521 9.40366 10.8662V2.53523C9.40366 2.02115 9.23465 1.60565 8.90367 1.28171C8.60789 1.02819 8.31211 0.901422 8.01633 0.901422H7.8121V0.316925H12.1501L16.2065 6.14086C16.5163 6.58452 16.7417 6.92255 16.8896 7.15495L17.2346 7.71834C17.3403 7.89439 17.4248 8.04226 17.4741 8.16198L17.5586 8.14086C17.5375 7.92959 17.5375 7.56339 17.5375 7.04227Z" fill="black"/>
<path d="M29.1714 7.86619L26.3052 7.94364C26.2911 8.69716 26.2841 9.25351 26.2841 9.6197V10.8662C26.2841 11.5634 26.5094 12.0352 26.9531 12.2817C27.277 12.4577 27.8193 12.5422 28.5869 12.5422C29.3122 12.5422 29.9531 12.4577 30.5024 12.2817C31.5376 11.9436 32.2841 11.3521 32.7418 10.507C32.7982 10.4014 32.8827 10.2958 33.0024 10.2042C33.0798 10.1408 33.1362 10.0211 33.1643 9.85914H33.7277L33.5235 13.993H22.2277V13.4296H22.432C22.8193 13.4296 23.0728 13.2183 23.1784 12.8028C23.2277 12.6127 23.2629 12.2465 23.2629 11.6901V2.61268C23.2629 2.06338 23.2348 1.69014 23.1784 1.50704C23.0728 1.09154 22.8193 0.880266 22.432 0.880266H22.2277V0.316895H32.7136L32.8122 4.26759H32.2489C32.2207 3.86618 32.1151 3.57042 31.9249 3.38028C31.6714 3.16901 31.4108 2.95773 31.1573 2.75351C30.4953 2.19013 29.5165 1.90845 28.2136 1.90845H26.3967C26.3686 3.16197 26.3545 3.88028 26.3545 4.0845C26.3545 5.01408 26.3545 5.64788 26.3545 6H27.3827C28.3897 6 28.946 5.98591 29.0587 5.9507C29.1643 5.91548 29.2418 5.9014 29.2841 5.9014C29.2982 5.9014 29.3122 5.9014 29.3263 5.9014H29.3474L29.7277 5.76056L30.108 5.45773V8.1831L29.1714 7.86619Z" fill="black"/>
<path d="M41.5937 14.0986H40.4458L36.474 4.64083C35.7064 2.80984 35.2134 1.73239 35.0021 1.39436C34.7838 1.05633 34.488 0.887315 34.1148 0.887315V0.323944H40.4247V0.887315C39.4176 0.887315 38.9106 1.11268 38.9106 1.55634C38.9106 1.70423 38.9458 1.85916 39.0092 2.02113L40.7838 6.38026C41.1359 7.22533 41.3824 8.01407 41.5303 8.73942H41.65C41.974 7.7183 42.2275 6.9507 42.4176 6.43661L44.6782 0.323944H46.4951L49.1359 6.53519C49.4881 7.5704 49.7204 8.35914 49.8402 8.89435H49.9599C50.2697 7.87323 50.5162 7.10563 50.7063 6.59154L51.9387 3.16197C52.1289 2.6338 52.2204 2.22535 52.2204 1.92958C52.2204 1.23944 51.7838 0.901392 50.9106 0.901392V0.33802L55.812 0.316895V0.880266C55.4247 0.880266 55.0373 1.20423 54.6641 1.84507C54.312 2.40845 53.9528 3.16197 53.5725 4.10563C53.481 4.30985 53.1782 5.08451 52.6641 6.44366L49.7627 14.0915H48.6148L44.9035 5.24647L41.5937 14.0986Z" fill="black"/>
<path d="M63.1925 2.34506C62.6291 1.37323 61.9812 0.894356 61.2559 0.894356V0.330963H67.9742V0.894356C67.1714 0.894356 66.7629 1.15492 66.7629 1.68308C66.7629 1.96478 66.8685 2.29576 67.0657 2.669L68.8826 6.01407L70.8404 2.92956C71.0657 2.56336 71.1854 2.23238 71.1854 1.92252C71.1854 1.23238 70.6854 0.894356 69.6925 0.894356V0.330963H75.1009V0.894356C74.8333 0.894356 74.5446 1.00703 74.2347 1.23942C73.7629 1.59153 73.2488 2.19716 72.6784 3.05631L69.7136 7.59152C69.6995 7.95068 69.6925 8.28168 69.6925 8.57746V11.7042C69.6925 12.2606 69.7206 12.6267 69.777 12.8169C69.8826 13.2324 70.1291 13.4436 70.5235 13.4436H70.7277V14.007H65.6432V13.4436H65.8474C66.2418 13.4436 66.4882 13.2324 66.5939 12.8169C66.6502 12.6267 66.6784 12.2606 66.6784 11.7042V8.27462L63.1925 2.34506Z" fill="black"/>
<path d="M86.3683 1.93662C87.6078 3.22535 88.2275 4.86621 88.2275 6.85917C88.2275 9.03522 87.5937 10.8169 86.3331 12.1831C85.0233 13.6056 83.2768 14.3169 81.0655 14.3169C79.1852 14.3169 77.643 13.7394 76.4458 12.5845C75.157 11.3451 74.5092 9.59156 74.5092 7.31691C74.5092 5.28874 75.15 3.58452 76.4247 2.21833C77.7979 0.739454 79.5866 0 81.7909 0C83.6078 0 85.1289 0.647887 86.3683 1.93662ZM78.8613 3.59155C78.5655 4.14085 78.3683 4.65493 78.2768 5.12676C78.1148 5.92253 78.0373 6.56338 78.0373 7.06338C78.0373 7.56338 78.1289 8.28875 78.319 9.23945C78.3895 9.59156 78.4669 9.87324 78.5584 10.0845C78.5725 10.1127 78.6923 10.331 78.9247 10.7535C79.5303 11.9085 80.3613 12.4859 81.4247 12.4859C82.3824 12.4859 83.143 12 83.7204 11.0352C84.0585 10.4859 84.2768 9.96479 84.3895 9.48591C84.5937 8.55634 84.6923 7.83804 84.6923 7.32396C84.6923 6.98593 84.5937 6.29578 84.3895 5.24649C84.319 4.89437 84.2345 4.59155 84.1289 4.33803C84.0726 4.17606 83.9599 3.92958 83.7838 3.59155C83.1782 2.47888 82.3472 1.91549 81.2838 1.91549C80.2486 1.92254 79.4387 2.47888 78.8613 3.59155Z" fill="black"/>
<path d="M94.1713 8.169C93.9389 8.0352 93.6783 7.94365 93.3825 7.90844C93.3685 8.59154 93.3614 9.27465 93.3614 9.94366V11.6972C93.3614 12.2535 93.3896 12.6197 93.4389 12.8098C93.5445 13.2253 93.798 13.4366 94.1853 13.4366H94.3896V14H89.3051V13.4366H89.5093C89.8966 13.4366 90.1501 13.2253 90.2558 12.8098C90.3121 12.6197 90.3332 12.2535 90.3332 11.6972V2.6197C90.3332 2.07041 90.3051 1.69718 90.2558 1.51409C90.1501 1.09859 89.8966 0.887316 89.5093 0.887316H89.3051V0.323944H96.1219C96.9036 0.323944 97.5797 0.415489 98.1572 0.60563C99.9036 1.19718 100.777 2.36618 100.777 4.11266C100.777 4.50702 100.699 4.87323 100.559 5.22534C100.087 6.30281 99.1079 7.06337 97.6149 7.50703C98.9459 9.73942 100.143 11.4014 101.206 12.4859C101.812 13.1197 102.242 13.4366 102.495 13.4366V14H97.6924C97.7839 13.8239 97.8332 13.669 97.8332 13.5352C97.8332 13.3873 97.6924 13.0986 97.4107 12.669C96.7769 11.7324 96.136 10.6761 95.4741 9.5L94.1713 8.169ZM94.6431 7.20422C95.5234 7.20422 96.1924 7 96.6431 6.59859C97.1924 6.09859 97.46 5.30282 97.46 4.19718C97.46 4.06338 97.4178 3.8521 97.3403 3.57041C97.2347 3.19013 97.0656 2.86619 96.8332 2.5845C96.3473 2.00704 95.629 1.7183 94.6783 1.7183C94.298 1.7183 93.9248 1.75352 93.5445 1.8169C93.5304 2.01408 93.5163 2.30984 93.5023 2.68308C93.4882 3.06336 93.4741 3.30986 93.46 3.42958C93.4459 3.95071 93.4318 4.52817 93.4177 5.14084V7.09859C93.9318 7.16901 94.3403 7.20422 94.6431 7.20422Z" fill="black"/>
<path d="M107.523 7.16196C107.495 8.66901 107.481 10.1831 107.481 11.6972C107.481 12.2535 107.509 12.6197 107.559 12.8098C107.664 13.2253 107.918 13.4366 108.305 13.4366H108.509V14H103.425V13.4366H103.629C104.016 13.4366 104.27 13.2253 104.376 12.8098C104.432 12.6197 104.46 12.2535 104.46 11.6972V2.6197C104.46 2.07041 104.432 1.69718 104.376 1.51409C104.27 1.09859 104.016 0.887316 103.629 0.887316H103.425V0.323944H108.608V0.887316H108.404C108.023 0.887316 107.777 1.09859 107.657 1.51409C107.615 1.69014 107.587 2.05632 107.573 2.6197L107.523 7.16196ZM111.594 13.6549C111.594 13.4648 111.509 13.2606 111.354 13.0422C111.192 12.8239 111.037 12.6127 110.89 12.4084C109.911 11.007 109.178 9.95775 108.714 9.23944C107.946 8.12676 107.418 7.39435 107.143 7.04224L110.995 2.90844C111.516 2.34506 111.784 1.90141 111.784 1.57746C111.784 1.41549 111.742 1.3028 111.664 1.23238C111.411 1.00703 111.101 0.887316 110.735 0.887316V0.323944H116.101V0.887316C115.066 0.957738 114.059 1.54928 113.073 2.66196L110.087 6.07042C110.615 6.67606 111.087 7.26056 111.516 7.82394C112.122 8.64788 112.721 9.46478 113.312 10.2817C114.023 11.2535 114.671 12.0352 115.249 12.6408C115.706 13.1408 116.059 13.4014 116.298 13.4296V13.993H111.537C111.573 13.8803 111.594 13.7676 111.594 13.6549Z" fill="black"/>
<path d="M133.946 5.12676C133.946 5.21831 133.854 5.26761 133.664 5.26761C133.474 5.26761 133.383 5.21831 133.383 5.12676C133.383 4.93662 133.305 4.5986 133.143 4.11972C132.89 3.43662 132.516 2.88028 132.037 2.44366C131.502 1.97183 130.89 1.73944 130.199 1.73944C129.552 1.73944 128.988 1.89437 128.502 2.20423C127.545 2.83803 126.904 3.92255 126.566 5.47184C126.404 6.22536 126.326 6.85917 126.326 7.36621C126.326 7.80987 126.34 8.16198 126.368 8.4155C126.474 9.47888 126.77 10.3451 127.256 11.0141C127.939 11.993 128.981 12.4859 130.383 12.4859C131.58 12.4859 132.502 11.993 133.143 11.0141C133.171 10.9648 133.263 10.8592 133.425 10.7113C133.516 10.6197 133.587 10.493 133.629 10.331L134.094 10.4718C133.861 11.5634 133.439 12.4296 132.826 13.0775C132.016 13.9155 130.925 14.331 129.537 14.331C127.39 14.331 125.707 13.6479 124.495 12.2747C123.432 11.0916 122.904 9.56339 122.904 7.6972C122.904 5.57748 123.622 3.76058 125.059 2.26058C126.495 0.760579 128.291 0.0140991 130.425 0.0140991C131.164 0.0140991 131.918 0.0915476 132.706 0.239435L133.96 0.500016V5.12676H133.946Z" fill="black"/>
<path d="M139.833 7.16196C139.805 8.66901 139.791 10.1831 139.791 11.6972C139.791 12.2535 139.819 12.6197 139.876 12.8098C139.981 13.2253 140.228 13.4366 140.622 13.4366H140.826V14H135.742V13.4366H135.946C136.333 13.4366 136.587 13.2253 136.692 12.8098C136.749 12.6197 136.777 12.2535 136.777 11.6972V2.6197C136.777 2.07041 136.749 1.69718 136.692 1.51409C136.587 1.09859 136.34 0.887316 135.946 0.887316H135.742V0.323944H140.925V0.887316H140.721C140.34 0.887316 140.101 1.09859 139.974 1.51409C139.932 1.69014 139.904 2.05632 139.89 2.6197L139.833 7.16196Z" fill="black"/>
<path d="M151.833 2.06337C151.404 2.04929 150.706 2.02814 149.735 1.99997C149.72 2.53518 149.706 3.12675 149.692 3.77463C149.664 4.67604 149.643 6.49293 149.636 9.21828L149.615 11.6972C149.615 12.2535 149.643 12.6197 149.692 12.8098C149.798 13.2253 150.051 13.4366 150.439 13.4366H150.643V14H145.558V13.4366H145.763C146.15 13.4366 146.404 13.2253 146.509 12.8098C146.559 12.6197 146.587 12.2535 146.587 11.6972V1.99997C146.319 2.01406 145.756 2.02112 144.904 2.02112C144.326 2.02112 143.918 2.04224 143.685 2.0845C143.347 2.14084 143.009 2.28166 142.671 2.50702C142.523 2.59857 142.411 2.69013 142.326 2.7676C142.192 2.9014 142.122 3.04223 142.122 3.19012L142.101 2.32393V0.330963H154.122L154.101 1.64083V3.31689C153.685 2.59154 153.22 2.19013 152.728 2.12675L151.833 2.06337Z" fill="black"/>
<path d="M156.551 2.34506C155.988 1.37323 155.34 0.894356 154.615 0.894356V0.330963H161.333V0.894356C160.523 0.894356 160.122 1.15492 160.122 1.68308C160.122 1.96478 160.22 2.29576 160.425 2.669L162.242 6.01407L164.199 2.92956C164.425 2.56336 164.537 2.23238 164.537 1.92252C164.537 1.23238 164.037 0.894356 163.044 0.894356V0.330963H168.446V0.894356C168.178 0.894356 167.889 1.00703 167.58 1.23942C167.108 1.59153 166.594 2.19716 166.03 3.05631L163.066 7.59152C163.051 7.95068 163.044 8.28168 163.044 8.57746V11.7042C163.044 12.2606 163.073 12.6267 163.122 12.8169C163.227 13.2324 163.481 13.4436 163.868 13.4436H164.073V14.007H158.988V13.4436H159.192C159.58 13.4436 159.833 13.2324 159.939 12.8169C159.988 12.6267 160.016 12.2606 160.016 11.7042V8.27462L156.551 2.34506Z" fill="black"/>
<path d="M175.622 17.4014H0.523377C0.276898 17.4014 0.0797119 17.1972 0.0797119 16.9578C0.0797119 16.7113 0.276898 16.5141 0.523377 16.5141H175.622C175.868 16.5141 176.066 16.7113 176.066 16.9578C176.066 17.1972 175.868 17.4014 175.622 17.4014Z" fill="black"/>
<path d="M51.9741 28.2183C51.8192 26.9577 51.4459 25.9718 50.96 25.2042C50.5657 24.5774 50.1009 24.0915 49.622 23.7183C48.5164 22.7746 47.2699 22.5352 46.6854 22.4648C46.6431 22.4577 46.6009 22.4507 46.5656 22.4507C46.4741 22.4436 46.3825 22.4366 46.284 22.4366C45.5938 22.4366 44.8051 22.669 44.0586 22.9084C44.3262 22.7112 44.5727 22.4859 44.798 22.2183C46.0375 20.7464 45.9882 18.6338 45.8755 18.5422C45.7628 18.4507 43.7135 18.8239 42.4389 20.2464C41.5516 21.2394 41.3192 22.5915 41.3051 23.345C40.2488 23.0915 38.8051 22.4366 37.6431 22.4366C37.5516 22.4366 37.453 22.4366 37.3614 22.4507C37.3262 22.4577 37.284 22.4577 37.2417 22.4648C36.6572 22.5352 35.4037 22.7746 34.3051 23.7183C33.8262 24.0986 33.3614 24.5845 32.9671 25.2042C32.4811 25.9788 32.1079 26.9648 31.953 28.2183C31.8966 28.669 31.8685 29.1619 31.8755 29.6901C31.8826 30.2183 31.9248 30.7324 31.9952 31.2394C32.1502 32.3169 32.4389 33.3309 32.8192 34.2535C33.2347 35.2816 33.7558 36.2112 34.3121 37C35.5445 38.7394 36.9389 39.7464 37.7206 39.7676C37.7699 39.7676 37.8192 39.7676 37.8755 39.7676C39.3825 39.7394 40.6995 38.7746 41.798 38.7394C41.8192 38.7394 41.8403 38.7394 41.8614 38.7394C41.8755 38.7394 41.8896 38.7394 41.8966 38.7394C41.9037 38.7394 41.9107 38.7394 41.9248 38.7394C41.9318 38.7394 41.9389 38.7394 41.9459 38.7394H41.96H41.9741C41.9811 38.7394 41.9882 38.7394 41.9952 38.7394C42.0023 38.7394 42.0093 38.7394 42.0234 38.7394C42.0375 38.7394 42.0516 38.7394 42.0586 38.7394C42.0797 38.7394 42.1009 38.7394 42.122 38.7394C43.2206 38.7746 44.5445 39.7394 46.0445 39.7676C46.0938 39.7676 46.1431 39.7676 46.1924 39.7676C46.9811 39.7464 48.3755 38.7394 49.6009 37C50.1572 36.2112 50.6783 35.2887 51.1009 34.2535C51.4811 33.3239 51.7699 32.3098 51.9248 31.2394C51.9952 30.7324 52.0375 30.2183 52.0445 29.6901C52.0516 29.1619 52.0304 28.669 51.9741 28.2183Z" fill="black"/>
<path d="M46.1148 39.9859C46.0866 39.9859 46.0585 39.9859 46.0303 39.9859C45.1782 39.9718 44.3754 39.6619 43.6711 39.3943C43.1078 39.176 42.5725 38.9718 42.1078 38.9577H42.0937H42.0514H42.0373C42.0303 38.9577 42.0232 38.9577 42.0162 38.9577H41.9951C41.988 38.9577 41.9739 38.9577 41.9669 38.9577C41.9599 38.9577 41.9458 38.9577 41.9388 38.9577H41.9176C41.9106 38.9577 41.9035 38.9577 41.8965 38.9577H41.8754H41.8331H41.819C41.3542 38.9718 40.819 39.176 40.2556 39.3943C39.5514 39.6619 38.7556 39.9718 37.8965 39.9859C37.8472 39.9859 37.7909 39.9859 37.7345 39.9859C36.7979 39.9647 35.3261 38.7887 34.15 37.1267C33.5444 36.2676 33.0303 35.331 32.6289 34.338C32.2204 33.338 31.9388 32.3028 31.7909 31.2676C31.7134 30.7394 31.6782 30.2112 31.6711 29.6901C31.6641 29.1619 31.6923 28.6619 31.7486 28.1901C31.8965 27 32.2486 25.9577 32.7979 25.0845C33.1711 24.4859 33.6359 23.9718 34.1852 23.5422C35.2275 22.6549 36.4176 22.345 37.2345 22.2464C37.2768 22.2394 37.319 22.2324 37.3542 22.2324C37.4528 22.2253 37.5514 22.2183 37.6571 22.2183C38.4669 22.2183 39.4035 22.5211 40.2345 22.7887C40.5444 22.8873 40.8402 22.9859 41.1148 23.0633C41.1711 22.4084 41.3895 21.1056 42.2909 20.0986C43.5092 18.7394 45.3895 18.3098 45.812 18.3098C45.8824 18.3098 45.9669 18.3169 46.0373 18.3732C46.1077 18.4366 46.143 18.5281 46.1571 18.7183C46.2063 19.2887 46.0937 21.0493 44.981 22.3662C44.9669 22.3873 44.9458 22.4084 44.9247 22.4295C45.3894 22.3098 45.8542 22.2253 46.2909 22.2253C46.3965 22.2253 46.5021 22.2324 46.6007 22.2394C46.643 22.2464 46.6852 22.2464 46.7275 22.2535C47.5373 22.3521 48.7275 22.6619 49.7768 23.5563C50.319 23.9788 50.7838 24.4999 51.1571 25.0985C51.7064 25.9718 52.0585 27.014 52.1993 28.2042C52.2556 28.676 52.2838 29.1831 52.2768 29.7042C52.2697 30.2253 52.2275 30.7605 52.157 31.2817C52.0092 32.3169 51.7275 33.345 51.319 34.3521C50.9176 35.345 50.4035 36.2817 49.7979 37.1408C48.6219 38.8028 47.15 39.9788 46.2134 40C46.1711 39.9859 46.143 39.9859 46.1148 39.9859ZM42.1007 38.5141H42.1289C42.6711 38.5352 43.2345 38.7535 43.8401 38.9788C44.5444 39.2464 45.2697 39.5281 46.0514 39.5422C46.1007 39.5422 46.143 39.5422 46.1923 39.5422C46.8754 39.5281 48.2063 38.6056 49.4317 36.8662C50.0162 36.0352 50.5162 35.1267 50.9035 34.169C51.2979 33.1971 51.5726 32.2042 51.7134 31.2042C51.7838 30.6972 51.8261 30.1901 51.8331 29.683C51.8401 29.183 51.812 28.6971 51.7627 28.2464C51.6218 27.1197 51.2979 26.1337 50.7838 25.3168C50.4387 24.7675 50.0021 24.2887 49.4951 23.8873C48.5162 23.0563 47.4176 22.7746 46.6641 22.676C46.6218 22.669 46.5796 22.6619 46.5444 22.6619C46.4669 22.6549 46.3754 22.6478 46.2838 22.6478C45.6148 22.6478 44.819 22.8873 44.1289 23.1056L42.8542 23.514L43.9317 22.7183C44.1993 22.5211 44.4387 22.3028 44.6359 22.0633C45.643 20.8662 45.7556 19.2183 45.7134 18.7465C45.2134 18.8028 43.643 19.2394 42.6219 20.3802C41.6641 21.4507 41.5514 22.9155 41.5444 23.338L41.5373 23.6126L41.2697 23.5493C40.9106 23.4647 40.5162 23.338 40.1007 23.1971C39.3049 22.9366 38.4035 22.6478 37.6641 22.6478C37.5726 22.6478 37.481 22.6549 37.4035 22.6619C37.3754 22.6619 37.3331 22.669 37.2909 22.676C36.5373 22.7676 35.4317 23.0563 34.4669 23.8802C33.9528 24.2816 33.5162 24.7675 33.1711 25.3168C32.6571 26.1337 32.3261 27.1197 32.1923 28.2464C32.1359 28.6971 32.1148 29.176 32.1219 29.683C32.1289 30.1901 32.1641 30.6972 32.2416 31.2042C32.3894 32.2042 32.6571 33.2042 33.0514 34.169C33.4388 35.1267 33.9388 36.0352 34.5233 36.8662C35.7486 38.5985 37.0796 39.5281 37.7557 39.5422C37.8049 39.5422 37.8472 39.5422 37.8965 39.5422C38.6782 39.5281 39.4035 39.2464 40.1078 38.9788C40.7064 38.7464 41.2768 38.5281 41.819 38.5141H41.8472H41.8895H41.9176C41.9247 38.5141 41.9317 38.5141 41.9458 38.5141H41.9669H41.974H42.0021H42.0303C42.0373 38.5141 42.0444 38.5141 42.0514 38.5141H42.0937H42.1007Z" fill="black"/>
<path d="M44.798 22.2113C46.0374 20.7394 45.9881 18.6267 45.8754 18.5352C45.7628 18.4436 43.7135 18.8169 42.4388 20.2394C41.1712 21.662 41.2487 23.8239 41.3613 23.9155C41.474 24.007 43.5585 23.676 44.798 22.2113Z" fill="#ED1C24"/>
<path d="M51.9739 28.2183C51.819 26.9578 51.4458 25.9718 50.9598 25.2042C50.5655 24.5775 50.1007 24.0915 49.6218 23.7183C48.5162 22.7746 47.2626 22.5352 46.6852 22.4648C46.6429 22.4577 46.6007 22.4507 46.5655 22.4507C46.4739 22.4436 46.3824 22.4366 46.2838 22.4366C44.8683 22.4366 43.0162 23.4225 41.9739 23.4366H41.9528C40.9176 23.4155 39.0655 22.4366 37.6429 22.4366C37.5514 22.4366 37.4528 22.4366 37.3613 22.4507C37.326 22.4577 37.2838 22.4577 37.2415 22.4648C36.657 22.5352 35.4035 22.7746 34.3049 23.7183C33.826 24.0986 33.3612 24.5845 32.9669 25.2042C32.481 25.9789 32.1077 26.9648 31.9528 28.2183C31.8964 28.669 31.8683 29.162 31.8753 29.6901C31.8824 30.2183 31.9246 30.7324 31.9951 31.2394C32.15 32.3169 32.4387 33.331 32.819 34.2535C33.2345 35.2817 33.7556 36.2113 34.3119 37C35.5443 38.7394 36.9387 39.7465 37.7204 39.7676C37.7697 39.7676 37.819 39.7676 37.8683 39.7676C39.3753 39.7394 40.6922 38.7747 41.7908 38.7394C41.8119 38.7394 41.8331 38.7394 41.8542 38.7394C41.8683 38.7394 41.8824 38.7394 41.8894 38.7394C41.8965 38.7394 41.9035 38.7394 41.9176 38.7394C41.9246 38.7394 41.9317 38.7394 41.9387 38.7394H41.9528H41.9669C41.9739 38.7394 41.981 38.7394 41.988 38.7394C41.995 38.7394 42.0021 38.7394 42.0162 38.7394C42.0303 38.7394 42.0443 38.7394 42.0514 38.7394C42.0725 38.7394 42.0936 38.7394 42.1148 38.7394C43.2134 38.7747 44.5373 39.7394 46.0373 39.7676C46.0866 39.7676 46.1359 39.7676 46.1852 39.7676C46.9739 39.7465 48.3683 38.7394 49.5936 37C50.15 36.2113 50.6711 35.2887 51.0936 34.2535C51.4739 33.3239 51.7626 32.3099 51.9176 31.2394C51.988 30.7324 52.0303 30.2183 52.0373 29.6901C52.0514 29.162 52.0303 28.669 51.9739 28.2183Z" fill="#ED1C24"/>
<path d="M39.3685 25.3521C39.2135 25.6267 38.9248 25.4577 38.9248 25.4577C38.8825 25.4366 38.8262 25.4859 38.8614 25.5352C38.8966 25.5775 39.0656 25.7676 39.2347 25.7183C39.4037 25.676 39.467 25.4929 39.46 25.3873C39.4529 25.2746 39.3685 25.3521 39.3685 25.3521ZM38.4248 23.5C38.4248 23.5 38.1853 23.5563 38.2346 23.8662C38.2839 24.169 38.3825 24.2324 38.4952 24.1972C38.6079 24.1619 38.6501 24.0281 38.5868 23.838C38.5868 23.838 38.5022 23.6549 38.5586 23.6267C38.622 23.5986 38.6572 23.8028 38.7065 23.7676C38.7347 23.7464 38.7065 23.6972 38.7065 23.6972C38.7065 23.6972 38.629 23.4507 38.4248 23.5ZM38.8473 28.2676C38.8684 28.3169 39.0938 28.5352 39.3192 28.5C39.5445 28.4648 39.6572 28.2676 39.6783 28.1408C39.6994 28.014 39.5868 28.1127 39.5868 28.1127C39.2628 28.4225 38.9811 28.2957 38.9177 28.2394C38.8825 28.2042 38.8332 28.2253 38.8473 28.2676ZM42.8473 35.0422C42.629 35.0422 41.6642 35.1901 39.9107 34.3803L39.7065 34.5281L39.7417 34.5L38.1713 35.676C38.1713 35.676 38.4037 35.9084 38.8332 36.1901C38.8825 36.2183 38.9318 36.2535 38.9811 36.2816C38.9952 36.2676 39.1501 36.0634 39.291 35.9507C39.4389 35.838 39.629 35.7113 39.7135 35.6127C39.798 35.507 40.1149 35.0774 40.2065 34.7535C40.2065 34.7535 41.622 35.3521 42.8544 35.1479C42.8614 35.1479 43.0727 35.0422 42.8473 35.0422ZM39.1854 27.5C39.3403 27.4718 39.4811 27.2605 39.453 27.007C39.4248 26.7605 39.2628 26.4929 39.0586 26.507C38.8403 26.5211 38.7487 26.7746 38.7769 27.0493C38.8121 27.3239 39.0304 27.5281 39.1854 27.5ZM45.4882 26.7535L45.7769 26.5422C45.7769 26.5422 45.129 25.9155 44.1079 25.5352C43.0868 25.1549 42.7065 25.1479 42.0445 25.1338C42.0445 25.1338 41.622 24.6056 41.5023 23.9859C41.46 23.7958 41.5515 23.3169 41.467 23.1126C41.3262 22.7746 41.3051 22.4507 41.3051 22.4507C41.3051 22.4507 41.3192 22.4507 41.3403 22.4436C41.3614 22.4296 41.4459 22.3521 41.6008 22.3098C41.7769 22.2605 42.3051 22.1338 42.4177 21.9084C42.5375 21.6831 42.5938 21.4225 42.467 21.3591C42.3473 21.2958 42.2065 21.2817 42.1854 21.2958C42.1642 21.3098 41.8825 21.5211 41.7065 21.5141C41.7065 21.5141 41.4741 21.3873 41.3685 21.1901C41.2558 20.9859 41.1501 20.6901 40.8473 20.6901C40.8473 20.6901 40.5163 20.662 40.2417 20.7676C39.967 20.8662 39.298 21.2887 39.1079 21.5211C39.1079 21.5211 39.0938 21.6127 39.1008 21.6479C39.1008 21.6479 38.6783 21.6901 38.3966 21.8451C38.1149 22 37.798 22.0915 37.4882 22.6901C37.1713 23.2887 37.2065 23.5422 37.1572 23.6831C37.1079 23.8239 36.9882 24.0282 36.9882 24.0282L36.9318 24.0986C36.9107 24.169 36.8755 24.2676 36.8403 24.331C36.791 24.4296 36.2346 25.1549 36.2346 25.1549C36.2346 25.1549 35.8896 25.7112 35.791 25.9577C35.6924 26.2042 35.6431 26.5282 35.6572 26.7606C35.6783 26.9929 35.7065 27.176 35.798 27.3732C35.8896 27.5704 36.1572 27.9788 36.3121 28.1338C36.0868 28.3169 35.9952 28.3873 35.8966 28.4929C35.798 28.5915 35.622 28.7957 35.5304 28.9718C35.4389 29.1338 35.2346 29.4929 35.0868 29.6972C34.9389 29.8943 33.8544 31.0281 33.6713 31.2817C33.5093 31.2957 33.298 31.1972 33.298 31.1972C33.298 31.1901 33.298 31.1831 33.298 31.176C33.136 31.1197 32.5445 30.9014 31.7487 30.5422C30.8051 30.1197 30.3332 30.0352 29.7699 30.2957C29.7699 30.2957 29.5163 30.6479 29.9037 30.8098C30.3192 30.9859 30.4248 30.9084 30.8262 31.176C30.8262 31.176 30.2276 31.6127 29.9952 31.9014C29.7558 32.1901 29.8825 32.5211 30.2769 32.4648C30.6642 32.4014 30.9037 32.3169 31.122 32.4225C31.122 32.4225 31.122 32.5704 31.0375 32.662C30.953 32.7535 30.6361 33.0493 30.6572 33.2183C30.6783 33.3943 30.6713 33.6126 31.1079 33.5211C31.1079 33.5211 31.3755 33.4296 31.7487 33.1901C31.7487 33.1901 32.2558 33.4155 32.5163 33.5422C32.7769 33.669 33.1431 33.6972 33.2206 33.5845C33.2206 33.5845 33.5727 33.7746 33.8614 34.0704L33.8896 34.1056C33.9741 34.1831 34.1008 34.2887 34.1431 34.3169C34.1994 34.3591 34.4177 34.4929 34.5515 34.4929C34.6853 34.4929 34.8544 34.4225 34.9037 34.331C34.9529 34.2394 34.9529 34.1831 34.9248 34.0422C34.8966 33.8943 34.7276 33.6619 34.7276 33.6619L35.5022 33.2676L36.2487 32.6127C36.2487 32.6127 36.3614 33.1338 36.5375 33.4577L37.5586 32.6972L37.6713 32.6197L37.3755 32.0563L37.5656 32.0211C37.5656 32.0211 37.5938 31.9295 37.5375 31.9366C37.4741 31.9436 36.953 31.9295 36.2346 32.4155C36.2346 32.4155 35.967 32.6267 35.7487 32.845C35.5304 33.0633 35.122 33.331 34.6501 33.4929C34.6501 33.4929 34.6783 33.2535 34.7346 33.1549C34.7346 33.1549 34.3262 33.3169 34.6642 33.838C34.6642 33.838 34.8403 34.1056 34.7346 34.338C34.7346 34.338 34.5868 34.4155 34.3896 34.3169C34.1924 34.2183 33.4037 33.4014 33.0445 33.3802C33.0445 33.3802 33.2206 33.6056 32.8966 33.514C32.5727 33.4295 31.7698 32.9577 31.6008 33.0493C31.6008 33.0493 31.7347 33.1338 31.5938 33.1901C31.46 33.2465 31.2699 33.3239 31.1713 33.3943C31.0656 33.4648 30.7206 33.4788 30.8685 33.169C31.0163 32.8591 31.2628 32.7464 31.2699 32.4577C31.2699 32.4577 31.5586 32.5633 31.6431 32.6338C31.7276 32.7042 31.6854 32.5704 31.6854 32.5704C31.6854 32.5704 31.2206 32.0563 30.3121 32.3169C30.3121 32.3169 29.8966 32.4436 30.1009 32.0633C30.1009 32.0633 30.6149 31.5493 30.9389 31.3098C30.9389 31.3098 31.0515 31.3802 31.2276 31.5704C31.2276 31.5704 31.3051 31.5915 31.2558 31.507C31.1994 31.4155 31.0586 31.176 30.8755 31.0352C30.6924 30.8944 30.1924 30.7535 30.0163 30.7042C29.8403 30.6549 29.8262 30.4577 29.9952 30.3873C30.2135 30.3028 30.6783 30.2887 31.3121 30.507C31.3121 30.507 32.0304 30.8169 32.636 31.0986C33.2417 31.3802 34.0586 31.6197 34.1783 31.4507L33.8544 31.3521C33.8544 31.3521 34.0868 31.1267 34.2065 30.9789C34.3192 30.831 34.6431 30.5 34.8051 30.331C34.8051 30.331 35.2558 29.8943 35.4107 29.6479C35.5656 29.4014 35.7276 29.0422 35.9318 28.8028C36.1994 28.4788 36.5093 28.3098 36.5093 28.3098C36.5093 28.3098 36.7558 28.4929 37.0093 28.7394C37.0093 28.7394 36.9811 28.5986 36.8966 28.4929C36.8121 28.3873 35.96 27.5563 35.9037 26.8521C35.8473 26.1479 36.3896 25.3521 36.5868 25.0985C36.791 24.845 36.953 24.5915 37.0516 24.4155C37.0516 24.4155 37.2276 23.9788 37.3051 23.7535C37.3051 23.7535 37.5586 22.7253 37.953 22.3802C38.3473 22.0352 38.9811 21.7957 39.7417 21.7042C39.7417 21.7042 39.5656 21.6549 39.3403 21.6549C39.3403 21.6549 39.2346 21.6267 39.3755 21.5281C39.453 21.4788 40.129 20.9014 40.7135 20.8732C40.7135 20.8732 41.0375 20.831 41.2065 21.1831C41.3896 21.5634 41.7558 21.8451 42.0586 21.8028L41.9389 21.6831C41.9389 21.6831 41.8825 21.6408 42.0093 21.6126C42.0093 21.6126 42.1501 21.5704 42.2206 21.5211C42.298 21.4648 42.467 21.4718 42.4318 21.6619C42.4037 21.8521 42.2487 21.9718 42.0445 22.0493C41.8473 22.1267 41.5515 22.1972 41.3966 22.2535C41.1713 22.3239 41.1431 22.4788 41.1501 22.5563C41.1501 22.5563 40.8473 22.2394 40.7206 22.2324C40.7206 22.2324 41.2346 22.7042 41.291 23.3098C41.3403 23.8732 41.2065 24.0563 41.4882 24.5704C41.4882 24.5704 41.6854 24.9366 41.8262 25.1267C41.9318 25.2676 42.3614 25.8309 42.3262 26.5492C42.291 27.3028 41.7839 28.0704 41.6783 28.162C41.6783 28.162 42.4459 27.6901 42.5375 26.4084C42.5375 26.4084 43.6994 26.0141 45.3544 26.8944L45.4882 26.7535ZM51.7487 29.9929C51.629 29.9577 51.5727 29.8591 50.5586 29.7394V29.7465C50.5586 29.7465 50.1501 29.7042 49.8825 29.6197C49.9248 29.4929 49.953 29.2324 50.3473 28.8098C50.3473 28.8098 50.3473 28.8098 50.3473 28.8169C50.4248 28.7465 50.7487 28.4437 50.9318 28.2606C51.136 28.0563 51.1572 27.7958 51.0515 27.6901C50.953 27.5915 50.8262 27.5141 50.6783 27.5422C50.5375 27.5704 50.3966 27.6197 50.0304 27.8169C50.0304 27.8239 50.0304 27.8239 50.0375 27.8309C50.0375 27.8309 49.1642 28.338 48.629 28.7183C48.4177 28.7394 47.9811 28.7817 47.9811 28.7817L47.6924 28.838C47.6924 28.838 47.629 28.7605 47.5445 28.676L47.4248 28.7605V28.7676L47.4459 28.9084C47.4459 28.9084 47.298 28.9647 47.3121 29.014C47.3121 29.014 47.3192 29.0915 47.4177 29.0704C47.4177 29.0704 47.5586 29.0422 47.6572 29C47.7558 28.9507 48.0516 28.8802 48.2346 28.8943L48.2558 28.9295C48.2558 28.9295 48.122 28.9788 48.0445 29.014C47.96 29.0492 47.8473 29.0845 47.8262 29.1267C47.8262 29.1267 48.1008 29.0986 48.298 29.0211C48.298 29.0211 48.629 28.9014 48.9177 28.6972C49.2065 28.4929 49.9248 28 50.3051 27.838C50.6854 27.676 50.9459 27.6549 50.9952 27.8239C51.0515 27.993 50.8684 28.1479 50.7628 28.2465C50.6501 28.338 50.0727 28.8169 49.8262 29.3732C49.5797 29.9295 49.8473 30.1267 50.0022 30.0915C50.0022 30.0915 49.798 29.9718 49.8755 29.6972C49.8755 29.6972 50.0868 29.7676 50.2698 29.8028C50.4529 29.838 51.3966 29.9295 51.5867 30.0352C51.7769 30.1408 51.96 30.2324 51.9459 30.3943C51.9318 30.5493 51.6713 30.6267 51.5163 30.6549C51.3614 30.6831 50.8544 30.5915 50.6713 30.5985C50.4811 30.6056 50.2135 30.5986 49.96 30.8802C49.96 30.8802 49.953 30.9436 50.0586 30.9225C50.0586 30.9225 50.2417 31.2112 50.3755 31.2676C50.5163 31.3309 50.7558 31.507 50.8473 31.5986C50.9389 31.6972 50.9177 31.838 50.8825 31.8802C50.8473 31.9225 50.6853 31.9788 50.4037 31.9014C50.122 31.8169 49.7487 31.5563 49.6079 31.4648C49.467 31.3732 48.9248 31.1197 48.4952 31.338C48.4952 31.338 47.8896 31.7253 47.4529 31.5845C47.4529 31.5845 47.5868 31.4859 47.7206 31.4718C47.8544 31.4577 47.798 31.3239 47.7276 31.331C47.6572 31.338 47.467 31.3309 47.1149 31.5704C46.7628 31.8098 46.4177 32.0211 46.0515 32.0352C45.6854 32.0563 45.629 31.7464 45.6924 31.5281C45.7558 31.3098 46.0163 30.9155 46.1501 30.7816C46.1501 30.7816 46.2346 30.5845 46.2206 30.4366C46.1994 30.2887 46.1008 30.4436 46.1079 30.4929C46.1149 30.5422 46.1008 30.5915 46.0656 30.6126C46.0304 30.6338 45.5375 30.3169 45.5023 30.2464L45.3614 30.3591C45.3614 30.3591 45.5093 30.5493 45.9037 30.7253C45.9037 30.7253 45.9529 30.7817 45.9318 30.8521C45.9037 30.9155 45.6713 31.1338 45.5727 31.3732C45.4741 31.6127 45.4248 32.0845 45.7699 32.1971C46.1149 32.3098 46.4177 32.1267 46.4882 32.0985C46.5586 32.0704 47.122 31.7676 47.2135 31.7042C47.2135 31.7042 47.5304 31.8169 47.8755 31.7324C47.8755 31.7324 48.3614 31.5845 48.46 31.5352C48.5586 31.4859 48.7628 31.4084 48.8966 31.3943C49.0304 31.3732 49.1713 31.3873 49.2417 31.4155C49.3121 31.4436 49.6149 31.5845 49.7346 31.669C49.8473 31.7535 49.8332 31.7394 50.0656 31.9014C50.298 32.0634 50.6361 32.0704 50.6361 32.0704C50.6361 32.0704 50.6361 32.0704 50.6361 32.0774C50.8051 32.0704 51.0023 32.0422 51.0304 31.9295C51.0797 31.7394 51.0938 31.6338 50.6924 31.3098C50.6924 31.3098 50.3403 31.0845 50.2135 30.8732C50.2135 30.8732 50.1361 30.7183 50.6713 30.7183C50.7417 30.7183 50.8614 30.7253 51.0375 30.7464C51.3262 30.7746 51.6713 30.7817 51.7839 30.7253C51.8966 30.669 52.0727 30.5493 52.0727 30.3873C52.0515 30.2464 51.8684 30.0352 51.7487 29.9929ZM39.6008 23.8803C39.6079 24.2394 39.6994 24.2605 39.791 24.2605C39.791 24.2605 39.9741 24.2535 39.9459 23.9577C39.9248 23.6619 39.967 23.6972 39.9952 23.6972C40.0304 23.6972 40.0375 23.8732 40.0938 23.8732C40.122 23.8732 40.122 23.8098 40.1149 23.7676C40.1149 23.7676 40.0515 23.4929 39.8544 23.507C39.8544 23.5 39.5938 23.5141 39.6008 23.8803ZM40.1361 23.0774C40.1361 23.0774 40.2206 23.1197 40.2487 23.0845C40.2769 23.0493 40.2346 22.9929 40.2346 22.9929C40.2346 22.9929 40.0234 22.7394 39.8685 22.6408L39.798 22.6338L39.6713 22.7183L39.6853 22.7676C39.6783 22.7605 39.9741 22.9155 40.1361 23.0774ZM38.3896 22.7676C38.2206 22.831 38.0656 23.0915 38.0727 23.176C38.0797 23.2605 38.1853 23.3098 38.2346 23.2112C38.2346 23.2112 38.2769 23.0281 38.4952 22.7887C38.5163 22.7535 38.4882 22.7253 38.3896 22.7676Z" fill="black"/>
<path d="M38.8823 36.2183C38.9175 36.2394 38.9527 36.2605 38.9879 36.2816C38.9527 36.2605 38.9175 36.2394 38.8823 36.2183ZM45.3259 26.8309C43.6921 25.9718 42.5442 26.3591 42.5442 26.3591C42.4527 27.6408 41.6851 28.1126 41.6851 28.1126C41.7907 28.0281 42.2978 27.2535 42.333 26.5C42.3611 25.7816 41.9316 25.2182 41.833 25.0774C41.6921 24.8873 41.4949 24.5211 41.4949 24.5211C41.2203 24.007 41.3541 23.8239 41.2978 23.2605C41.2414 22.6549 40.7273 22.183 40.7273 22.183C40.8541 22.1901 41.1569 22.507 41.1569 22.507C41.1499 22.4295 41.178 22.2746 41.4034 22.2042C41.5583 22.1549 41.8541 22.0845 42.0513 21.9999C42.2485 21.9225 42.4034 21.8027 42.4386 21.6126C42.4738 21.4225 42.2978 21.4154 42.2273 21.4718C42.1499 21.5281 42.0161 21.5633 42.0161 21.5633C41.8823 21.5915 41.9456 21.6337 41.9456 21.6337L42.0654 21.7535C41.7625 21.8028 41.3964 21.514 41.2133 21.1337C41.0442 20.7816 40.7203 20.8239 40.7203 20.8239C40.1358 20.852 39.4597 21.4295 39.3823 21.4788C39.2414 21.5774 39.347 21.6056 39.347 21.6056C39.5654 21.6056 39.7485 21.6549 39.7485 21.6549C38.9809 21.7464 38.3541 21.9788 37.9597 22.3309C37.5583 22.676 37.3118 23.7042 37.3118 23.7042C37.2344 23.9295 37.0583 24.3661 37.0583 24.3661C36.9597 24.5422 36.7978 24.7957 36.5935 25.0493C36.3893 25.3028 35.8541 26.0985 35.9104 26.8028C35.9668 27.507 36.8189 28.3379 36.9034 28.4436C36.9879 28.5492 37.0161 28.6901 37.0161 28.6901C36.7625 28.4436 36.5161 28.2605 36.5161 28.2605C36.5161 28.2605 36.1992 28.4295 35.9386 28.7534C35.7414 28.9929 35.5724 29.352 35.4175 29.5985C35.2626 29.845 34.8119 30.2816 34.8119 30.2816C34.6499 30.4507 34.333 30.7816 34.2133 30.9295C34.1006 31.0774 33.8611 31.3027 33.8611 31.3027L34.1851 31.4013C34.0724 31.5703 33.2485 31.3309 32.6428 31.0492C32.0372 30.7605 31.3189 30.4577 31.3189 30.4577C30.6851 30.2394 30.2203 30.2534 30.002 30.3379C29.833 30.4013 29.8471 30.5985 30.0231 30.6549C30.1992 30.7042 30.6992 30.838 30.8823 30.9859C31.0654 31.1267 31.2133 31.3661 31.2626 31.4577C31.3189 31.5492 31.2344 31.5211 31.2344 31.5211C31.0654 31.3309 30.9456 31.2605 30.9456 31.2605C30.6147 31.507 30.1076 32.014 30.1076 32.014C29.9034 32.3943 30.3189 32.2676 30.3189 32.2676C31.2273 32.007 31.6921 32.5211 31.6921 32.5211C31.6921 32.5211 31.7344 32.6619 31.6499 32.5844C31.5654 32.514 31.2766 32.4084 31.2766 32.4084C31.2696 32.6971 31.0231 32.8098 30.8752 33.1196C30.7273 33.4295 31.0724 33.4154 31.1781 33.345C31.2837 33.2746 31.4668 33.1971 31.6006 33.1408C31.7414 33.0845 31.6076 32.9999 31.6076 32.9999C31.7766 32.9084 32.5794 33.3802 32.9034 33.4647C33.2273 33.5492 33.0513 33.3309 33.0513 33.3309C33.4175 33.352 34.1992 34.1689 34.3963 34.2675C34.5935 34.3591 34.7414 34.2887 34.7414 34.2887C34.8471 34.0563 34.671 33.7887 34.671 33.7887C34.34 33.2675 34.7414 33.1056 34.7414 33.1056C34.6851 33.2042 34.6569 33.4436 34.6569 33.4436C35.1288 33.2816 35.5372 33.014 35.7555 32.7957C35.9738 32.5704 36.2414 32.3661 36.2414 32.3661C36.9597 31.8802 37.4809 31.8943 37.5442 31.8872C37.6076 31.8802 37.5724 31.9718 37.5724 31.9718L37.3823 32.007L37.6499 32.5281C37.664 32.5492 37.671 32.5633 37.678 32.5774L45.3823 26.8521C45.3541 26.845 45.34 26.838 45.3259 26.8309ZM38.9245 25.4577C38.9245 25.4577 39.2133 25.6267 39.3682 25.3521C39.3682 25.3521 39.4527 25.2746 39.4668 25.3802C39.4738 25.4929 39.4104 25.669 39.2414 25.7112C39.0724 25.7605 38.9034 25.5704 38.8682 25.5281C38.8259 25.4929 38.8893 25.4365 38.9245 25.4577ZM39.4527 27.007C39.4809 27.2605 39.34 27.4718 39.1851 27.4999C39.0302 27.5281 38.8118 27.3239 38.7766 27.0492C38.7485 26.7746 38.84 26.5281 39.0583 26.507C39.2626 26.4999 39.4245 26.7605 39.4527 27.007ZM38.0724 23.176C38.0654 23.0915 38.2203 22.8309 38.3893 22.7675C38.4879 22.7253 38.5161 22.7535 38.4949 22.7887C38.2766 23.0281 38.2344 23.2112 38.2344 23.2112C38.1851 23.3098 38.0794 23.2605 38.0724 23.176ZM38.2273 23.8661C38.178 23.5633 38.4175 23.4999 38.4175 23.4999C38.6217 23.4436 38.6992 23.6901 38.6992 23.6901C38.6992 23.6901 38.7273 23.7394 38.6992 23.7605C38.6569 23.7957 38.6147 23.5915 38.5513 23.6197C38.4879 23.6478 38.5794 23.8309 38.5794 23.8309C38.6428 24.0211 38.6076 24.1619 38.4879 24.1901C38.3752 24.2323 38.2766 24.169 38.2273 23.8661ZM39.6851 28.1408C39.664 28.2675 39.5513 28.4647 39.3259 28.4999C39.1006 28.5351 38.8682 28.3168 38.8541 28.2675C38.833 28.2253 38.8893 28.2042 38.9316 28.2394C38.9879 28.2887 39.2766 28.4154 39.6006 28.1126C39.5935 28.1126 39.7062 28.014 39.6851 28.1408ZM40.0935 23.8661C40.0372 23.8732 40.0231 23.6901 39.9949 23.6901C39.9668 23.6901 39.9245 23.6549 39.9456 23.9507C39.9668 24.2464 39.7907 24.2535 39.7907 24.2535C39.7062 24.2535 39.6076 24.2394 39.6006 23.8732C39.6006 23.514 39.8541 23.4929 39.8541 23.4929C40.0513 23.4788 40.1147 23.7535 40.1147 23.7535C40.1217 23.8028 40.1288 23.8661 40.0935 23.8661ZM40.2485 23.0844C40.2203 23.1196 40.1358 23.0774 40.1358 23.0774C39.9738 22.9154 39.678 22.7675 39.678 22.7675L39.664 22.7182L39.7907 22.6337L39.8611 22.6408C40.0161 22.7394 40.2273 22.9929 40.2273 22.9929C40.2273 22.9929 40.2766 23.0492 40.2485 23.0844ZM51.5795 30.0422C51.3893 29.9365 50.4456 29.845 50.2625 29.8098C50.0794 29.7816 49.8682 29.7042 49.8682 29.7042C49.7837 29.9788 49.9949 30.0985 49.9949 30.0985C49.84 30.1337 49.5724 29.9365 49.8189 29.3802C50.0654 28.8239 50.6428 28.345 50.7555 28.2535C50.8682 28.1549 51.0442 27.9999 50.9879 27.8309C50.9386 27.6619 50.678 27.683 50.2978 27.845C49.9175 28.007 49.1992 28.507 48.9104 28.7042C48.6217 28.9084 48.2907 29.0281 48.2907 29.0281C48.0935 29.1056 47.8189 29.1337 47.8189 29.1337C47.84 29.0915 47.9527 29.0563 48.0372 29.021C48.1217 28.9788 48.2485 28.9365 48.2485 28.9365L48.2273 28.9013C48.0442 28.8943 47.7485 28.9647 47.6499 29.007C47.5513 29.0563 47.4104 29.0774 47.4104 29.0774C47.3189 29.0915 47.3048 29.021 47.3048 29.021C47.2907 28.9788 47.4386 28.9154 47.4386 28.9154L47.4175 28.7746L39.9034 34.3732C41.6499 35.183 42.6147 35.0352 42.84 35.0352C43.0583 35.0352 42.847 35.1478 42.847 35.1478C41.6217 35.352 40.1992 34.7535 40.1992 34.7535C40.1076 35.0774 39.7907 35.507 39.7062 35.6126C39.6217 35.7112 39.4316 35.838 39.2837 35.9506C39.178 36.0281 39.0654 36.1619 39.009 36.2323L39.002 36.2394C39.002 36.2464 38.9949 36.2464 38.9949 36.2535C38.9809 36.2675 38.9738 36.2816 38.9738 36.2816C40.3259 37.1196 41.8611 37.1901 43.0161 36.9929C43.9809 36.8309 44.9738 36.4084 45.7978 35.683C46.7062 34.8802 47.2062 34.0492 47.5231 33.2253C47.7837 32.5422 47.84 31.7394 47.84 31.7394C47.495 31.8239 47.178 31.7112 47.178 31.7112C47.0865 31.7746 46.5231 32.0774 46.4527 32.1056C46.3823 32.1337 46.0865 32.3239 45.7344 32.2042C45.3893 32.0915 45.4386 31.6197 45.5372 31.3802C45.6358 31.1337 45.8752 30.9225 45.8964 30.8591C45.9245 30.7957 45.8682 30.7323 45.8682 30.7323C45.4668 30.5563 45.3259 30.3661 45.3259 30.3661L45.4668 30.2534C45.502 30.3239 45.9879 30.6337 46.0302 30.6197C46.0654 30.5985 46.0795 30.5422 46.0724 30.4999C46.0724 30.4507 46.171 30.2957 46.1851 30.4436C46.2062 30.5915 46.1147 30.7887 46.1147 30.7887C45.9809 30.9154 45.7203 31.3168 45.6569 31.5351C45.5935 31.7534 45.6499 32.0633 46.0161 32.0422C46.3823 32.0211 46.7344 31.8168 47.0794 31.5774C47.4316 31.338 47.6217 31.345 47.6921 31.338C47.7625 31.3309 47.8189 31.4647 47.6851 31.4788C47.5513 31.4999 47.4175 31.5915 47.4175 31.5915C47.8541 31.7323 48.4597 31.345 48.4597 31.345C48.8893 31.1338 49.4316 31.3802 49.5724 31.4718C49.7133 31.5633 50.0865 31.8239 50.3682 31.9084C50.6499 31.9859 50.8118 31.9295 50.8471 31.8872C50.8823 31.845 50.9034 31.7042 50.8119 31.6056C50.7203 31.514 50.4738 31.3309 50.34 31.2746C50.1992 31.2182 50.0231 30.9295 50.0231 30.9295C49.9175 30.9577 49.9245 30.8873 49.9245 30.8873C50.178 30.5985 50.4457 30.6126 50.6358 30.6056C50.8259 30.5985 51.3259 30.683 51.4809 30.6619C51.6358 30.6337 51.8964 30.5563 51.9104 30.4013C51.9457 30.2394 51.7696 30.1408 51.5795 30.0422Z" fill="white"/>
</svg>
